<svg width="133" height="10" viewBox="0 0 133 10" fill="none" xmlns="http://www.w3.org/2000/svg">
<path d="M6.78955 6.51855C6.69287 7.3457 6.38672 7.98486 5.87109 8.43604C5.35905 8.88363 4.67692 9.10742 3.82471 9.10742C2.90088 9.10742 2.15967 8.7762 1.60107 8.11377C1.04606 7.45133 0.768555 6.5651 0.768555 5.45508V4.70312C0.768555 3.97624 0.897461 3.33708 1.15527 2.78564C1.41667 2.23421 1.78548 1.81169 2.26172 1.51807C2.73796 1.22087 3.28939 1.07227 3.91602 1.07227C4.74674 1.07227 5.41276 1.30501 5.91406 1.77051C6.41536 2.23242 6.70719 2.87337 6.78955 3.69336H5.75293C5.66341 3.07031 5.46826 2.61914 5.16748 2.33984C4.87028 2.06055 4.45312 1.9209 3.91602 1.9209C3.25716 1.9209 2.73975 2.16439 2.36377 2.65137C1.99137 3.13835 1.80518 3.83122 1.80518 4.72998V5.4873C1.80518 6.33594 1.98242 7.0109 2.33691 7.51221C2.69141 8.01351 3.18734 8.26416 3.82471 8.26416C4.39762 8.26416 4.83626 8.13525 5.14062 7.87744C5.44857 7.61605 5.65267 7.16309 5.75293 6.51855H6.78955ZM9.12598 9H8.13232V0.75H9.12598V9ZM13.1328 9.10742C12.3451 9.10742 11.7041 8.84961 11.21 8.33398C10.7158 7.81478 10.4688 7.12191 10.4688 6.25537V6.07275C10.4688 5.49626 10.578 4.98242 10.7964 4.53125C11.0184 4.0765 11.3263 3.72201 11.7202 3.46777C12.1177 3.20996 12.5474 3.08105 13.0093 3.08105C13.7648 3.08105 14.3521 3.32992 14.771 3.82764C15.1899 4.32536 15.3994 5.03792 15.3994 5.96533V6.37891H11.4624C11.4767 6.95182 11.6432 7.41553 11.9619 7.77002C12.2842 8.12093 12.6924 8.29639 13.1865 8.29639C13.5374 8.29639 13.8346 8.22477 14.0781 8.08154C14.3216 7.93831 14.5347 7.74854 14.7173 7.51221L15.3242 7.98486C14.8372 8.73324 14.1068 9.10742 13.1328 9.10742ZM13.0093 3.89746C12.6082 3.89746 12.2716 4.04427 11.9995 4.33789C11.7274 4.62793 11.5591 5.03613 11.4946 5.5625H14.4058V5.4873C14.3771 4.98242 14.241 4.59212 13.9976 4.31641C13.7541 4.03711 13.4246 3.89746 13.0093 3.89746ZM20.1421 9C20.0848 8.88542 20.0382 8.68132 20.0024 8.3877C19.5405 8.86751 18.9891 9.10742 18.3481 9.10742C17.7752 9.10742 17.3044 8.94629 16.9355 8.62402C16.5703 8.29818 16.3877 7.88639 16.3877 7.38867C16.3877 6.78353 16.6169 6.31445 17.0752 5.98145C17.5371 5.64486 18.1852 5.47656 19.0195 5.47656H19.9863V5.02002C19.9863 4.67269 19.8825 4.39697 19.6748 4.19287C19.4671 3.98519 19.161 3.88135 18.7563 3.88135C18.4019 3.88135 18.1047 3.97087 17.8647 4.1499C17.6248 4.32894 17.5049 4.54557 17.5049 4.7998H16.5059C16.5059 4.50977 16.6079 4.23047 16.812 3.96191C17.0197 3.68978 17.299 3.47493 17.6499 3.31738C18.0044 3.15983 18.3929 3.08105 18.8154 3.08105C19.485 3.08105 20.0096 3.24935 20.3892 3.58594C20.7687 3.91895 20.9657 4.37907 20.98 4.96631V7.64111C20.98 8.17464 21.048 8.59896 21.1841 8.91406V9H20.1421ZM18.4932 8.24268C18.8047 8.24268 19.1001 8.16211 19.3794 8.00098C19.6587 7.83984 19.861 7.63037 19.9863 7.37256V6.18018H19.2075C17.9901 6.18018 17.3813 6.53646 17.3813 7.24902C17.3813 7.56055 17.4852 7.80404 17.6929 7.97949C17.9006 8.15495 18.1673 8.24268 18.4932 8.24268ZM23.4775 3.18848L23.5098 3.91895C23.9538 3.36035 24.5339 3.08105 25.25 3.08105C26.4782 3.08105 27.0977 3.77393 27.1084 5.15967V9H26.1147V5.1543C26.1112 4.73535 26.0145 4.42562 25.8247 4.2251C25.6385 4.02458 25.3467 3.92432 24.9492 3.92432C24.627 3.92432 24.3441 4.01025 24.1006 4.18213C23.8571 4.354 23.6673 4.57959 23.5312 4.85889V9H22.5376V3.18848H23.4775ZM31.126 6.8999C31.126 6.52393 31.2298 6.17839 31.4375 5.86328C31.6488 5.54818 32.0498 5.18115 32.6406 4.76221C32.2933 4.33968 32.0605 3.99951 31.9424 3.7417C31.8242 3.48389 31.7651 3.22786 31.7651 2.97363C31.7651 2.37923 31.9406 1.91374 32.2915 1.57715C32.6424 1.24056 33.1187 1.07227 33.7202 1.07227C34.2573 1.07227 34.7013 1.22982 35.0522 1.54492C35.4032 1.85645 35.5786 2.25033 35.5786 2.72656C35.5786 3.04167 35.498 3.3335 35.3369 3.60205C35.1794 3.86702 34.9019 4.14632 34.5044 4.43994L33.9297 4.86426L35.6699 6.94287C35.9134 6.47738 36.0352 5.95996 36.0352 5.39062H36.9321C36.9321 6.30371 36.7119 7.06104 36.2715 7.6626L37.3887 9H36.1963L35.6753 8.38232C35.4103 8.61865 35.0988 8.79948 34.7407 8.9248C34.3862 9.04655 34.0246 9.10742 33.6558 9.10742C32.8931 9.10742 32.2808 8.90511 31.8188 8.50049C31.3569 8.09587 31.126 7.56234 31.126 6.8999ZM33.6558 8.29639C34.1821 8.29639 34.6637 8.09587 35.1006 7.69482L33.1938 5.41211L33.0166 5.54102C32.4186 5.98145 32.1196 6.43441 32.1196 6.8999C32.1196 7.32243 32.2557 7.66081 32.5278 7.91504C32.8035 8.16927 33.1795 8.29639 33.6558 8.29639ZM32.7588 2.94141C32.7588 3.28516 32.9701 3.71484 33.3926 4.23047L34.0264 3.78467C34.2699 3.61279 34.4364 3.44987 34.5259 3.2959C34.6154 3.13835 34.6602 2.94857 34.6602 2.72656C34.6602 2.48665 34.5706 2.28792 34.3916 2.13037C34.2126 1.96924 33.987 1.88867 33.7148 1.88867C33.4212 1.88867 33.1885 1.98893 33.0166 2.18945C32.8447 2.38639 32.7588 2.63704 32.7588 2.94141ZM46.8149 6.51855C46.7183 7.3457 46.4121 7.98486 45.8965 8.43604C45.3844 8.88363 44.7023 9.10742 43.8501 9.10742C42.9263 9.10742 42.1851 8.7762 41.6265 8.11377C41.0715 7.45133 40.7939 6.5651 40.7939 5.45508V4.70312C40.7939 3.97624 40.9229 3.33708 41.1807 2.78564C41.4421 2.23421 41.8109 1.81169 42.2871 1.51807C42.7633 1.22087 43.3148 1.07227 43.9414 1.07227C44.7721 1.07227 45.4382 1.30501 45.9395 1.77051C46.4408 2.23242 46.7326 2.87337 46.8149 3.69336H45.7783C45.6888 3.07031 45.4937 2.61914 45.1929 2.33984C44.8957 2.06055 44.4785 1.9209 43.9414 1.9209C43.2826 1.9209 42.7651 2.16439 42.3892 2.65137C42.0168 3.13835 41.8306 3.83122 41.8306 4.72998V5.4873C41.8306 6.33594 42.0078 7.0109 42.3623 7.51221C42.7168 8.01351 43.2127 8.26416 43.8501 8.26416C44.423 8.26416 44.8617 8.13525 45.166 7.87744C45.474 7.61605 45.6781 7.16309 45.7783 6.51855H46.8149ZM47.8086 6.04053C47.8086 5.47119 47.9196 4.95915 48.1416 4.50439C48.3672 4.04964 48.6787 3.69873 49.0762 3.45166C49.4772 3.20459 49.9338 3.08105 50.4458 3.08105C51.2371 3.08105 51.8763 3.35498 52.3633 3.90283C52.8538 4.45068 53.0991 5.17936 53.0991 6.08887V6.15869C53.0991 6.72445 52.9899 7.23291 52.7715 7.68408C52.5566 8.13167 52.2469 8.48079 51.8423 8.73145C51.4412 8.9821 50.9793 9.10742 50.4565 9.10742C49.6688 9.10742 49.0296 8.8335 48.5391 8.28564C48.0521 7.73779 47.8086 7.0127 47.8086 6.11035V6.04053ZM48.8076 6.15869C48.8076 6.80322 48.9562 7.32064 49.2534 7.71094C49.5542 8.10124 49.9552 8.29639 50.4565 8.29639C50.9614 8.29639 51.3625 8.09945 51.6597 7.70557C51.9569 7.30811 52.1055 6.75309 52.1055 6.04053C52.1055 5.40316 51.9533 4.88753 51.6489 4.49365C51.3481 4.09619 50.9471 3.89746 50.4458 3.89746C49.9552 3.89746 49.5596 4.09261 49.2588 4.48291C48.958 4.87321 48.8076 5.4318 48.8076 6.15869ZM55.2798 3.18848L55.3066 3.83301C55.7327 3.33171 56.3075 3.08105 57.0308 3.08105C57.8436 3.08105 58.3968 3.39258 58.6904 4.01562C58.8838 3.73633 59.1344 3.51074 59.4424 3.33887C59.7539 3.16699 60.1209 3.08105 60.5435 3.08105C61.8182 3.08105 62.4663 3.75602 62.4878 5.10596V9H61.4941V5.16504C61.4941 4.74967 61.3993 4.43994 61.2095 4.23584C61.0197 4.02816 60.701 3.92432 60.2534 3.92432C59.8846 3.92432 59.5785 4.03532 59.335 4.25732C59.0915 4.47575 58.95 4.77116 58.9106 5.14355V9H57.9116V5.19189C57.9116 4.34684 57.498 3.92432 56.6709 3.92432C56.0192 3.92432 55.5734 4.20182 55.3335 4.75684V9H54.3398V3.18848H55.2798ZM64.4805 9V3.95654H63.562V3.18848H64.4805V2.59229C64.4805 1.96924 64.647 1.48763 64.98 1.14746C65.313 0.807292 65.7839 0.637207 66.3926 0.637207C66.6217 0.637207 66.8491 0.667643 67.0747 0.728516L67.021 1.53418C66.8527 1.50195 66.6737 1.48584 66.4839 1.48584C66.1616 1.48584 65.9128 1.58073 65.7373 1.77051C65.5618 1.95671 65.4741 2.22526 65.4741 2.57617V3.18848H66.7148V3.95654H65.4741V9H64.4805ZM67.5527 6.04053C67.5527 5.47119 67.6637 4.95915 67.8857 4.50439C68.1113 4.04964 68.4229 3.69873 68.8203 3.45166C69.2214 3.20459 69.6779 3.08105 70.1899 3.08105C70.9813 3.08105 71.6204 3.35498 72.1074 3.90283C72.598 4.45068 72.8433 5.17936 72.8433 6.08887V6.15869C72.8433 6.72445 72.734 7.23291 72.5156 7.68408C72.3008 8.13167 71.991 8.48079 71.5864 8.73145C71.1854 8.9821 70.7235 9.10742 70.2007 9.10742C69.4129 9.10742 68.7738 8.8335 68.2832 8.28564C67.7962 7.73779 67.5527 7.0127 67.5527 6.11035V6.04053ZM68.5518 6.15869C68.5518 6.80322 68.7004 7.32064 68.9976 7.71094C69.2983 8.10124 69.6994 8.29639 70.2007 8.29639C70.7056 8.29639 71.1066 8.09945 71.4038 7.70557C71.701 7.30811 71.8496 6.75309 71.8496 6.04053C71.8496 5.40316 71.6974 4.88753 71.3931 4.49365C71.0923 4.09619 70.6912 3.89746 70.1899 3.89746C69.6994 3.89746 69.3037 4.09261 69.0029 4.48291C68.7021 4.87321 68.5518 5.4318 68.5518 6.15869ZM76.8984 4.08008C76.748 4.05501 76.5851 4.04248 76.4097 4.04248C75.758 4.04248 75.3158 4.31999 75.083 4.875V9H74.0894V3.18848H75.0562L75.0723 3.85986C75.3981 3.34066 75.86 3.08105 76.458 3.08105C76.6514 3.08105 76.7982 3.10612 76.8984 3.15625V4.08008ZM79.4336 1.78125V3.18848H80.5186V3.95654H79.4336V7.56055C79.4336 7.79329 79.4819 7.96875 79.5786 8.08691C79.6753 8.2015 79.84 8.25879 80.0728 8.25879C80.1873 8.25879 80.3449 8.2373 80.5454 8.19434V9C80.284 9.07161 80.0298 9.10742 79.7827 9.10742C79.3387 9.10742 79.0039 8.97314 78.7783 8.70459C78.5527 8.43604 78.4399 8.05469 78.4399 7.56055V3.95654H77.3818V3.18848H78.4399V1.78125H79.4336ZM85.272 9C85.2147 8.88542 85.1681 8.68132 85.1323 8.3877C84.6704 8.86751 84.119 9.10742 83.478 9.10742C82.9051 9.10742 82.4342 8.94629 82.0654 8.62402C81.7002 8.29818 81.5176 7.88639 81.5176 7.38867C81.5176 6.78353 81.7467 6.31445 82.2051 5.98145C82.667 5.64486 83.3151 5.47656 84.1494 5.47656H85.1162V5.02002C85.1162 4.67269 85.0124 4.39697 84.8047 4.19287C84.597 3.98519 84.2909 3.88135 83.8862 3.88135C83.5317 3.88135 83.2345 3.97087 82.9946 4.1499C82.7547 4.32894 82.6348 4.54557 82.6348 4.7998H81.6357C81.6357 4.50977 81.7378 4.23047 81.9419 3.96191C82.1496 3.68978 82.4289 3.47493 82.7798 3.31738C83.1343 3.15983 83.5228 3.08105 83.9453 3.08105C84.6149 3.08105 85.1395 3.24935 85.519 3.58594C85.8986 3.91895 86.0955 4.37907 86.1099 4.96631V7.64111C86.1099 8.17464 86.1779 8.59896 86.314 8.91406V9H85.272ZM83.623 8.24268C83.9346 8.24268 84.23 8.16211 84.5093 8.00098C84.7886 7.83984 84.9909 7.63037 85.1162 7.37256V6.18018H84.3374C83.12 6.18018 82.5112 6.53646 82.5112 7.24902C82.5112 7.56055 82.6151 7.80404 82.8228 7.97949C83.0304 8.15495 83.2972 8.24268 83.623 8.24268ZM92.5874 6.15869C92.5874 7.04671 92.3833 7.76107 91.9751 8.30176C91.5669 8.83887 91.019 9.10742 90.3315 9.10742C89.5975 9.10742 89.0299 8.84782 88.6289 8.32861L88.5806 9H87.6675V0.75H88.6611V3.82764C89.0622 3.32992 89.6154 3.08105 90.3208 3.08105C91.0262 3.08105 91.5794 3.34782 91.9805 3.88135C92.3851 4.41488 92.5874 5.14535 92.5874 6.07275V6.15869ZM91.5938 6.0459C91.5938 5.36914 91.4631 4.84635 91.2017 4.47754C90.9403 4.10872 90.5643 3.92432 90.0737 3.92432C89.4185 3.92432 88.9476 4.22868 88.6611 4.8374V7.35107C88.9655 7.9598 89.4399 8.26416 90.0845 8.26416C90.5607 8.26416 90.9313 8.07975 91.1963 7.71094C91.4613 7.34212 91.5938 6.78711 91.5938 6.0459ZM94.9238 9H93.9302V0.75H94.9238V9ZM98.9307 9.10742C98.1429 9.10742 97.502 8.84961 97.0078 8.33398C96.5137 7.81478 96.2666 7.12191 96.2666 6.25537V6.07275C96.2666 5.49626 96.3758 4.98242 96.5942 4.53125C96.8162 4.0765 97.1242 3.72201 97.5181 3.46777C97.9155 3.20996 98.3452 3.08105 98.8071 3.08105C99.5627 3.08105 100.15 3.32992 100.569 3.82764C100.988 4.32536 101.197 5.03792 101.197 5.96533V6.37891H97.2603C97.2746 6.95182 97.4411 7.41553 97.7598 7.77002C98.082 8.12093 98.4902 8.29639 98.9844 8.29639C99.3353 8.29639 99.6325 8.22477 99.876 8.08154C100.119 7.93831 100.333 7.74854 100.515 7.51221L101.122 7.98486C100.635 8.73324 99.9046 9.10742 98.9307 9.10742ZM98.8071 3.89746C98.4061 3.89746 98.0695 4.04427 97.7974 4.33789C97.5252 4.62793 97.3569 5.03613 97.2925 5.5625H100.204V5.4873C100.175 4.98242 100.039 4.59212 99.7954 4.31641C99.5519 4.03711 99.2225 3.89746 98.8071 3.89746ZM111.252 5.34229C111.252 6.10856 111.123 6.77816 110.865 7.35107C110.607 7.92041 110.242 8.35547 109.77 8.65625C109.297 8.95703 108.745 9.10742 108.115 9.10742C107.499 9.10742 106.953 8.95703 106.477 8.65625C106.001 8.35189 105.63 7.92041 105.365 7.36182C105.104 6.79964 104.97 6.14974 104.962 5.41211V4.84814C104.962 4.09619 105.093 3.43197 105.354 2.85547C105.616 2.27897 105.985 1.83854 106.461 1.53418C106.941 1.22624 107.489 1.07227 108.104 1.07227C108.731 1.07227 109.283 1.22445 109.759 1.52881C110.239 1.82959 110.607 2.26823 110.865 2.84473C111.123 3.41764 111.252 4.08545 111.252 4.84814V5.34229ZM110.226 4.8374C110.226 3.90999 110.04 3.19922 109.667 2.70508C109.295 2.20736 108.774 1.9585 108.104 1.9585C107.453 1.9585 106.939 2.20736 106.563 2.70508C106.191 3.19922 105.999 3.88672 105.988 4.76758V5.34229C105.988 6.24105 106.176 6.94824 106.552 7.46387C106.932 7.97591 107.453 8.23193 108.115 8.23193C108.781 8.23193 109.297 7.99023 109.662 7.50684C110.027 7.01986 110.215 6.3234 110.226 5.41748V4.8374ZM113.132 9V3.95654H112.213V3.18848H113.132V2.59229C113.132 1.96924 113.298 1.48763 113.631 1.14746C113.964 0.807292 114.435 0.637207 115.044 0.637207C115.273 0.637207 115.5 0.667643 115.726 0.728516L115.672 1.53418C115.504 1.50195 115.325 1.48584 115.135 1.48584C114.813 1.48584 114.564 1.58073 114.389 1.77051C114.213 1.95671 114.125 2.22526 114.125 2.57617V3.18848H116.274V2.69434C116.274 2.04622 116.458 1.54134 116.827 1.17969C117.2 0.818034 117.724 0.637207 118.401 0.637207C118.802 0.637207 119.309 0.746419 119.921 0.964844L119.754 1.80273C119.307 1.6237 118.879 1.53418 118.471 1.53418C118.045 1.53418 117.737 1.62907 117.547 1.81885C117.361 2.00863 117.268 2.29688 117.268 2.68359V3.18848H118.46V3.95654H117.268V9H116.274V3.95654H114.125V9H113.132ZM120.41 9H119.416V3.18848H120.41V9ZM124.363 8.29639C124.717 8.29639 125.027 8.18896 125.292 7.97412C125.557 7.75928 125.704 7.49072 125.732 7.16846H126.672C126.654 7.50146 126.54 7.81836 126.329 8.11914C126.117 8.41992 125.834 8.65983 125.48 8.83887C125.129 9.0179 124.757 9.10742 124.363 9.10742C123.571 9.10742 122.941 8.84424 122.472 8.31787C122.007 7.78792 121.774 7.06462 121.774 6.14795V5.98145C121.774 5.41569 121.878 4.9126 122.085 4.47217C122.293 4.03174 122.59 3.68978 122.977 3.44629C123.367 3.2028 123.827 3.08105 124.357 3.08105C125.009 3.08105 125.55 3.2762 125.979 3.6665C126.413 4.0568 126.644 4.56348 126.672 5.18652H125.732C125.704 4.81055 125.561 4.5026 125.303 4.2627C125.049 4.01921 124.733 3.89746 124.357 3.89746C123.853 3.89746 123.46 4.08008 123.181 4.44531C122.905 4.80697 122.768 5.33154 122.768 6.01904V6.20703C122.768 6.87663 122.905 7.39225 123.181 7.75391C123.457 8.11556 123.851 8.29639 124.363 8.29639ZM130.201 9.10742C129.413 9.10742 128.772 8.84961 128.278 8.33398C127.784 7.81478 127.537 7.12191 127.537 6.25537V6.07275C127.537 5.49626 127.646 4.98242 127.865 4.53125C128.087 4.0765 128.395 3.72201 128.789 3.46777C129.186 3.20996 129.616 3.08105 130.078 3.08105C130.833 3.08105 131.42 3.32992 131.839 3.82764C132.258 4.32536 132.468 5.03792 132.468 5.96533V6.37891H128.531C128.545 6.95182 128.712 7.41553 129.03 7.77002C129.353 8.12093 129.761 8.29639 130.255 8.29639C130.606 8.29639 130.903 8.22477 131.146 8.08154C131.39 7.93831 131.603 7.74854 131.786 7.51221L132.393 7.98486C131.906 8.73324 131.175 9.10742 130.201 9.10742ZM130.078 3.89746C129.677 3.89746 129.34 4.04427 129.068 4.33789C128.796 4.62793 128.627 5.03613 128.563 5.5625H131.474V5.4873C131.445 4.98242 131.309 4.59212 131.066 4.31641C130.822 4.03711 130.493 3.89746 130.078 3.89746Z" fill="white"/>
</svg>
