<svg width="111" height="10" viewBox="0 0 111 10" fill="none" xmlns="http://www.w3.org/2000/svg">
<path d="M4.45264 5.54639H1.1709V9H0.139648V1.17969H4.98438V2.02832H1.1709V4.70312H4.45264V5.54639ZM9.46924 9C9.41195 8.88542 9.3654 8.68132 9.32959 8.3877C8.86768 8.86751 8.31624 9.10742 7.67529 9.10742C7.10238 9.10742 6.63151 8.94629 6.2627 8.62402C5.89746 8.29818 5.71484 7.88639 5.71484 7.38867C5.71484 6.78353 5.94401 6.31445 6.40234 5.98145C6.86426 5.64486 7.51237 5.47656 8.34668 5.47656H9.31348V5.02002C9.31348 4.67269 9.20964 4.39697 9.00195 4.19287C8.79427 3.98519 8.48812 3.88135 8.0835 3.88135C7.729 3.88135 7.4318 3.97087 7.19189 4.1499C6.95199 4.32894 6.83203 4.54557 6.83203 4.7998H5.83301C5.83301 4.50977 5.93506 4.23047 6.13916 3.96191C6.34684 3.68978 6.62614 3.47493 6.97705 3.31738C7.33154 3.15983 7.72005 3.08105 8.14258 3.08105C8.81217 3.08105 9.33675 3.24935 9.71631 3.58594C10.0959 3.91895 10.2928 4.37907 10.3071 4.96631V7.64111C10.3071 8.17464 10.3752 8.59896 10.5112 8.91406V9H9.46924ZM7.82031 8.24268C8.13184 8.24268 8.42725 8.16211 8.70654 8.00098C8.98584 7.83984 9.18815 7.63037 9.31348 7.37256V6.18018H8.53467C7.31722 6.18018 6.7085 6.53646 6.7085 7.24902C6.7085 7.56055 6.81234 7.80404 7.02002 7.97949C7.2277 8.15495 7.49447 8.24268 7.82031 8.24268ZM15.2485 7.4585C15.2485 7.18994 15.1465 6.98226 14.9424 6.83545C14.7419 6.68506 14.3892 6.55615 13.8843 6.44873C13.383 6.34131 12.9837 6.2124 12.6865 6.06201C12.3929 5.91162 12.1745 5.73258 12.0312 5.5249C11.8916 5.31722 11.8218 5.07015 11.8218 4.78369C11.8218 4.30745 12.0223 3.90462 12.4233 3.5752C12.828 3.24577 13.3436 3.08105 13.9702 3.08105C14.6291 3.08105 15.1626 3.25114 15.5708 3.59131C15.9826 3.93148 16.1885 4.36654 16.1885 4.89648H15.1895C15.1895 4.62435 15.0731 4.38981 14.8403 4.19287C14.6112 3.99593 14.3211 3.89746 13.9702 3.89746C13.6086 3.89746 13.3257 3.97624 13.1216 4.13379C12.9175 4.29134 12.8154 4.49723 12.8154 4.75146C12.8154 4.99137 12.9103 5.1722 13.1001 5.29395C13.2899 5.41569 13.6318 5.53206 14.126 5.64307C14.6237 5.75407 15.0265 5.88656 15.3345 6.04053C15.6424 6.1945 15.8698 6.3807 16.0166 6.59912C16.167 6.81396 16.2422 7.07715 16.2422 7.38867C16.2422 7.90788 16.0345 8.32503 15.6191 8.64014C15.2038 8.95166 14.6649 9.10742 14.0024 9.10742C13.5369 9.10742 13.1252 9.02507 12.7671 8.86035C12.409 8.69564 12.1279 8.46647 11.9238 8.17285C11.7233 7.87565 11.623 7.55518 11.623 7.21143H12.6167C12.6346 7.54443 12.7671 7.80941 13.0142 8.00635C13.2648 8.19971 13.5942 8.29639 14.0024 8.29639C14.3784 8.29639 14.6792 8.22119 14.9048 8.0708C15.134 7.91683 15.2485 7.71273 15.2485 7.4585ZM18.8848 1.78125V3.18848H19.9697V3.95654H18.8848V7.56055C18.8848 7.79329 18.9331 7.96875 19.0298 8.08691C19.1265 8.2015 19.2912 8.25879 19.5239 8.25879C19.6385 8.25879 19.7961 8.2373 19.9966 8.19434V9C19.7352 9.07161 19.481 9.10742 19.2339 9.10742C18.7899 9.10742 18.4551 8.97314 18.2295 8.70459C18.0039 8.43604 17.8911 8.05469 17.8911 7.56055V3.95654H16.833V3.18848H17.8911V1.78125H18.8848ZM23.6543 6.8999C23.6543 6.52393 23.7581 6.17839 23.9658 5.86328C24.1771 5.54818 24.5781 5.18115 25.1689 4.76221C24.8216 4.33968 24.5889 3.99951 24.4707 3.7417C24.3525 3.48389 24.2935 3.22786 24.2935 2.97363C24.2935 2.37923 24.4689 1.91374 24.8198 1.57715C25.1707 1.24056 25.647 1.07227 26.2485 1.07227C26.7856 1.07227 27.2297 1.22982 27.5806 1.54492C27.9315 1.85645 28.1069 2.25033 28.1069 2.72656C28.1069 3.04167 28.0264 3.3335 27.8652 3.60205C27.7077 3.86702 27.4302 4.14632 27.0327 4.43994L26.458 4.86426L28.1982 6.94287C28.4417 6.47738 28.5635 5.95996 28.5635 5.39062H29.4604C29.4604 6.30371 29.2402 7.06104 28.7998 7.6626L29.917 9H28.7246L28.2036 8.38232C27.9386 8.61865 27.6271 8.79948 27.269 8.9248C26.9146 9.04655 26.5529 9.10742 26.1841 9.10742C25.4214 9.10742 24.8091 8.90511 24.3472 8.50049C23.8853 8.09587 23.6543 7.56234 23.6543 6.8999ZM26.1841 8.29639C26.7104 8.29639 27.1921 8.09587 27.6289 7.69482L25.7222 5.41211L25.5449 5.54102C24.9469 5.98145 24.6479 6.43441 24.6479 6.8999C24.6479 7.32243 24.784 7.66081 25.0562 7.91504C25.3319 8.16927 25.7078 8.29639 26.1841 8.29639ZM25.2871 2.94141C25.2871 3.28516 25.4984 3.71484 25.9209 4.23047L26.5547 3.78467C26.7982 3.61279 26.9647 3.44987 27.0542 3.2959C27.1437 3.13835 27.1885 2.94857 27.1885 2.72656C27.1885 2.48665 27.099 2.28792 26.9199 2.13037C26.7409 1.96924 26.5153 1.88867 26.2432 1.88867C25.9495 1.88867 25.7168 1.98893 25.5449 2.18945C25.373 2.38639 25.2871 2.63704 25.2871 2.94141ZM38.0112 5.38525H34.6221V8.15674H38.5591V9H33.5908V1.17969H38.5054V2.02832H34.6221V4.54199H38.0112V5.38525ZM40.1758 9V3.95654H39.2573V3.18848H40.1758V2.59229C40.1758 1.96924 40.3423 1.48763 40.6753 1.14746C41.0083 0.807292 41.4792 0.637207 42.0879 0.637207C42.3171 0.637207 42.5444 0.667643 42.77 0.728516L42.7163 1.53418C42.548 1.50195 42.369 1.48584 42.1792 1.48584C41.8569 1.48584 41.6081 1.58073 41.4326 1.77051C41.2572 1.95671 41.1694 2.22526 41.1694 2.57617V3.18848H43.3179V2.69434C43.3179 2.04622 43.5023 1.54134 43.8711 1.17969C44.2435 0.818034 44.7681 0.637207 45.4448 0.637207C45.8459 0.637207 46.3525 0.746419 46.9648 0.964844L46.7983 1.80273C46.3507 1.6237 45.9229 1.53418 45.5146 1.53418C45.0885 1.53418 44.7806 1.62907 44.5908 1.81885C44.4046 2.00863 44.3115 2.29688 44.3115 2.68359V3.18848H45.5039V3.95654H44.3115V9H43.3179V3.95654H41.1694V9H40.1758ZM47.4536 9H46.46V3.18848H47.4536V9ZM51.4067 8.29639C51.7612 8.29639 52.071 8.18896 52.3359 7.97412C52.6009 7.75928 52.7477 7.49072 52.7764 7.16846H53.7163C53.6984 7.50146 53.5838 7.81836 53.3726 8.11914C53.1613 8.41992 52.8784 8.65983 52.5239 8.83887C52.173 9.0179 51.8006 9.10742 51.4067 9.10742C50.6154 9.10742 49.9852 8.84424 49.5161 8.31787C49.0506 7.78792 48.8179 7.06462 48.8179 6.14795V5.98145C48.8179 5.41569 48.9217 4.9126 49.1294 4.47217C49.3371 4.03174 49.6343 3.68978 50.021 3.44629C50.4113 3.2028 50.8714 3.08105 51.4014 3.08105C52.0531 3.08105 52.5938 3.2762 53.0234 3.6665C53.4567 4.0568 53.6877 4.56348 53.7163 5.18652H52.7764C52.7477 4.81055 52.6045 4.5026 52.3467 4.2627C52.0924 4.01921 51.7773 3.89746 51.4014 3.89746C50.8965 3.89746 50.5044 4.08008 50.2251 4.44531C49.9494 4.80697 49.8115 5.33154 49.8115 6.01904V6.20703C49.8115 6.87663 49.9494 7.39225 50.2251 7.75391C50.5008 8.11556 50.8947 8.29639 51.4067 8.29639ZM55.9131 9H54.9194V3.18848H55.9131V9ZM54.8389 1.64697C54.8389 1.48584 54.8872 1.34977 54.9839 1.23877C55.0841 1.12777 55.231 1.07227 55.4243 1.07227C55.6177 1.07227 55.7645 1.12777 55.8647 1.23877C55.965 1.34977 56.0151 1.48584 56.0151 1.64697C56.0151 1.80811 55.965 1.94238 55.8647 2.0498C55.7645 2.15723 55.6177 2.21094 55.4243 2.21094C55.231 2.21094 55.0841 2.15723 54.9839 2.0498C54.8872 1.94238 54.8389 1.80811 54.8389 1.64697ZM59.9199 9.10742C59.1322 9.10742 58.4912 8.84961 57.9971 8.33398C57.5029 7.81478 57.2559 7.12191 57.2559 6.25537V6.07275C57.2559 5.49626 57.3651 4.98242 57.5835 4.53125C57.8055 4.0765 58.1134 3.72201 58.5073 3.46777C58.9048 3.20996 59.3345 3.08105 59.7964 3.08105C60.5519 3.08105 61.1392 3.32992 61.5581 3.82764C61.9771 4.32536 62.1865 5.03792 62.1865 5.96533V6.37891H58.2495C58.2638 6.95182 58.4303 7.41553 58.749 7.77002C59.0713 8.12093 59.4795 8.29639 59.9736 8.29639C60.3245 8.29639 60.6217 8.22477 60.8652 8.08154C61.1087 7.93831 61.3218 7.74854 61.5044 7.51221L62.1113 7.98486C61.6243 8.73324 60.8939 9.10742 59.9199 9.10742ZM59.7964 3.89746C59.3953 3.89746 59.0588 4.04427 58.7866 4.33789C58.5145 4.62793 58.3462 5.03613 58.2817 5.5625H61.1929V5.4873C61.1642 4.98242 61.0282 4.59212 60.7847 4.31641C60.5412 4.03711 60.2118 3.89746 59.7964 3.89746ZM64.2812 3.18848L64.3135 3.91895C64.7575 3.36035 65.3376 3.08105 66.0537 3.08105C67.2819 3.08105 67.9014 3.77393 67.9121 5.15967V9H66.9185V5.1543C66.9149 4.73535 66.8182 4.42562 66.6284 4.2251C66.4422 4.02458 66.1504 3.92432 65.7529 3.92432C65.4307 3.92432 65.1478 4.01025 64.9043 4.18213C64.6608 4.354 64.471 4.57959 64.335 4.85889V9H63.3413V3.18848H64.2812ZM70.7588 1.78125V3.18848H71.8438V3.95654H70.7588V7.56055C70.7588 7.79329 70.8071 7.96875 70.9038 8.08691C71.0005 8.2015 71.1652 8.25879 71.3979 8.25879C71.5125 8.25879 71.6701 8.2373 71.8706 8.19434V9C71.6092 9.07161 71.355 9.10742 71.1079 9.10742C70.6639 9.10742 70.3291 8.97314 70.1035 8.70459C69.8779 8.43604 69.7651 8.05469 69.7651 7.56055V3.95654H68.707V3.18848H69.7651V1.78125H70.7588ZM78.1978 5.51416C77.3133 5.25993 76.6688 4.9484 76.2642 4.57959C75.8631 4.20719 75.6626 3.74886 75.6626 3.20459C75.6626 2.5887 75.9079 2.08024 76.3984 1.6792C76.8926 1.27458 77.5335 1.07227 78.3213 1.07227C78.8584 1.07227 79.3364 1.17611 79.7554 1.38379C80.1779 1.59147 80.5037 1.87793 80.7329 2.24316C80.9657 2.6084 81.082 3.00765 81.082 3.44092H80.0454C80.0454 2.96826 79.895 2.59766 79.5942 2.3291C79.2935 2.05697 78.8691 1.9209 78.3213 1.9209C77.8128 1.9209 77.4154 2.03369 77.1289 2.25928C76.846 2.48128 76.7046 2.79102 76.7046 3.18848C76.7046 3.50716 76.8389 3.77751 77.1074 3.99951C77.3796 4.21794 77.8397 4.41846 78.4878 4.60107C79.1395 4.78369 79.6479 4.986 80.0132 5.20801C80.382 5.42643 80.6541 5.68245 80.8296 5.97607C81.0086 6.26969 81.0981 6.61523 81.0981 7.0127C81.0981 7.64648 80.8511 8.15495 80.3569 8.53809C79.8628 8.91764 79.2021 9.10742 78.375 9.10742C77.8379 9.10742 77.3366 9.00537 76.8711 8.80127C76.4056 8.59359 76.0457 8.31071 75.7915 7.95264C75.5409 7.59456 75.4155 7.18815 75.4155 6.7334H76.4521C76.4521 7.20605 76.6258 7.58024 76.9731 7.85596C77.3241 8.12809 77.7913 8.26416 78.375 8.26416C78.9193 8.26416 79.3364 8.15316 79.6265 7.93115C79.9165 7.70915 80.0615 7.40658 80.0615 7.02344C80.0615 6.6403 79.9272 6.34489 79.6587 6.13721C79.3901 5.92594 78.9032 5.71826 78.1978 5.51416ZM84.6807 9.10742C83.8929 9.10742 83.252 8.84961 82.7578 8.33398C82.2637 7.81478 82.0166 7.12191 82.0166 6.25537V6.07275C82.0166 5.49626 82.1258 4.98242 82.3442 4.53125C82.5662 4.0765 82.8742 3.72201 83.2681 3.46777C83.6655 3.20996 84.0952 3.08105 84.5571 3.08105C85.3127 3.08105 85.8999 3.32992 86.3188 3.82764C86.7378 4.32536 86.9473 5.03792 86.9473 5.96533V6.37891H83.0103C83.0246 6.95182 83.1911 7.41553 83.5098 7.77002C83.832 8.12093 84.2402 8.29639 84.7344 8.29639C85.0853 8.29639 85.3825 8.22477 85.626 8.08154C85.8695 7.93831 86.0825 7.74854 86.2651 7.51221L86.8721 7.98486C86.3851 8.73324 85.6546 9.10742 84.6807 9.10742ZM84.5571 3.89746C84.1561 3.89746 83.8195 4.04427 83.5474 4.33789C83.2752 4.62793 83.1069 5.03613 83.0425 5.5625H85.9536V5.4873C85.925 4.98242 85.7889 4.59212 85.5454 4.31641C85.3019 4.03711 84.9725 3.89746 84.5571 3.89746ZM90.9111 4.08008C90.7607 4.05501 90.5978 4.04248 90.4224 4.04248C89.7707 4.04248 89.3285 4.31999 89.0957 4.875V9H88.1021V3.18848H89.0688L89.085 3.85986C89.4108 3.34066 89.8727 3.08105 90.4707 3.08105C90.6641 3.08105 90.8109 3.10612 90.9111 3.15625V4.08008ZM93.8438 7.65186L95.2832 3.18848H96.2983L94.2144 9H93.457L91.3516 3.18848H92.3667L93.8438 7.65186ZM98.334 9H97.3403V3.18848H98.334V9ZM97.2598 1.64697C97.2598 1.48584 97.3081 1.34977 97.4048 1.23877C97.505 1.12777 97.6519 1.07227 97.8452 1.07227C98.0386 1.07227 98.1854 1.12777 98.2856 1.23877C98.3859 1.34977 98.436 1.48584 98.436 1.64697C98.436 1.80811 98.3859 1.94238 98.2856 2.0498C98.1854 2.15723 98.0386 2.21094 97.8452 2.21094C97.6519 2.21094 97.505 2.15723 97.4048 2.0498C97.3081 1.94238 97.2598 1.80811 97.2598 1.64697ZM102.26 8.29639C102.615 8.29639 102.924 8.18896 103.189 7.97412C103.454 7.75928 103.601 7.49072 103.63 7.16846H104.57C104.552 7.50146 104.437 7.81836 104.226 8.11914C104.015 8.41992 103.732 8.65983 103.377 8.83887C103.027 9.0179 102.654 9.10742 102.26 9.10742C101.469 9.10742 100.839 8.84424 100.37 8.31787C99.9041 7.78792 99.6714 7.06462 99.6714 6.14795V5.98145C99.6714 5.41569 99.7752 4.9126 99.9829 4.47217C100.191 4.03174 100.488 3.68978 100.875 3.44629C101.265 3.2028 101.725 3.08105 102.255 3.08105C102.907 3.08105 103.447 3.2762 103.877 3.6665C104.31 4.0568 104.541 4.56348 104.57 5.18652H103.63C103.601 4.81055 103.458 4.5026 103.2 4.2627C102.946 4.01921 102.631 3.89746 102.255 3.89746C101.75 3.89746 101.358 4.08008 101.079 4.44531C100.803 4.80697 100.665 5.33154 100.665 6.01904V6.20703C100.665 6.87663 100.803 7.39225 101.079 7.75391C101.354 8.11556 101.748 8.29639 102.26 8.29639ZM108.099 9.10742C107.311 9.10742 106.67 8.84961 106.176 8.33398C105.682 7.81478 105.435 7.12191 105.435 6.25537V6.07275C105.435 5.49626 105.544 4.98242 105.762 4.53125C105.984 4.0765 106.292 3.72201 106.686 3.46777C107.083 3.20996 107.513 3.08105 107.975 3.08105C108.731 3.08105 109.318 3.32992 109.737 3.82764C110.156 4.32536 110.365 5.03792 110.365 5.96533V6.37891H106.428C106.443 6.95182 106.609 7.41553 106.928 7.77002C107.25 8.12093 107.658 8.29639 108.152 8.29639C108.503 8.29639 108.8 8.22477 109.044 8.08154C109.287 7.93831 109.5 7.74854 109.683 7.51221L110.29 7.98486C109.803 8.73324 109.073 9.10742 108.099 9.10742ZM107.975 3.89746C107.574 3.89746 107.237 4.04427 106.965 4.33789C106.693 4.62793 106.525 5.03613 106.46 5.5625H109.372V5.4873C109.343 4.98242 109.207 4.59212 108.963 4.31641C108.72 4.03711 108.39 3.89746 107.975 3.89746Z" fill="white"/>
</svg>
