<svg width="111" height="12" viewBox="0 0 111 12" fill="none" xmlns="http://www.w3.org/2000/svg">
<path d="M4.50146 5.54639H1.21973V9H0.188477V1.17969H5.0332V2.02832H1.21973V4.70312H4.50146V5.54639ZM8.78223 4.08008C8.63184 4.05501 8.46891 4.04248 8.29346 4.04248C7.64176 4.04248 7.19954 4.31999 6.9668 4.875V9H5.97314V3.18848H6.93994L6.95605 3.85986C7.2819 3.34066 7.74382 3.08105 8.3418 3.08105C8.53516 3.08105 8.68197 3.10612 8.78223 3.15625V4.08008ZM10.7803 9H9.78662V3.18848H10.7803V9ZM9.70605 1.64697C9.70605 1.48584 9.75439 1.34977 9.85107 1.23877C9.95133 1.12777 10.0981 1.07227 10.2915 1.07227C10.4849 1.07227 10.6317 1.12777 10.7319 1.23877C10.8322 1.34977 10.8823 1.48584 10.8823 1.64697C10.8823 1.80811 10.8322 1.94238 10.7319 2.0498C10.6317 2.15723 10.4849 2.21094 10.2915 2.21094C10.0981 2.21094 9.95133 2.15723 9.85107 2.0498C9.75439 1.94238 9.70605 1.80811 9.70605 1.64697ZM14.7871 9.10742C13.9993 9.10742 13.3584 8.84961 12.8643 8.33398C12.3701 7.81478 12.123 7.12191 12.123 6.25537V6.07275C12.123 5.49626 12.2323 4.98242 12.4507 4.53125C12.6727 4.0765 12.9806 3.72201 13.3745 3.46777C13.772 3.20996 14.2017 3.08105 14.6636 3.08105C15.4191 3.08105 16.0063 3.32992 16.4253 3.82764C16.8442 4.32536 17.0537 5.03792 17.0537 5.96533V6.37891H13.1167C13.131 6.95182 13.2975 7.41553 13.6162 7.77002C13.9385 8.12093 14.3467 8.29639 14.8408 8.29639C15.1917 8.29639 15.4889 8.22477 15.7324 8.08154C15.9759 7.93831 16.189 7.74854 16.3716 7.51221L16.9785 7.98486C16.4915 8.73324 15.7611 9.10742 14.7871 9.10742ZM14.6636 3.89746C14.2625 3.89746 13.9259 4.04427 13.6538 4.33789C13.3817 4.62793 13.2134 5.03613 13.1489 5.5625H16.0601V5.4873C16.0314 4.98242 15.8953 4.59212 15.6519 4.31641C15.4084 4.03711 15.0789 3.89746 14.6636 3.89746ZM19.1484 3.18848L19.1807 3.91895C19.6247 3.36035 20.2048 3.08105 20.9209 3.08105C22.1491 3.08105 22.7686 3.77393 22.7793 5.15967V9H21.7856V5.1543C21.7821 4.73535 21.6854 4.42562 21.4956 4.2251C21.3094 4.02458 21.0176 3.92432 20.6201 3.92432C20.2979 3.92432 20.015 4.01025 19.7715 4.18213C19.528 4.354 19.3382 4.57959 19.2021 4.85889V9H18.2085V3.18848H19.1484ZM24.0361 6.0459C24.0361 5.1543 24.2474 4.43815 24.6699 3.89746C25.0924 3.35319 25.6457 3.08105 26.3296 3.08105C27.0099 3.08105 27.5488 3.3138 27.9463 3.7793V0.75H28.9399V9H28.0269L27.9785 8.37695C27.5811 8.86393 27.0278 9.10742 26.3188 9.10742C25.6457 9.10742 25.096 8.83171 24.6699 8.28027C24.2474 7.72884 24.0361 7.00911 24.0361 6.12109V6.0459ZM25.0298 6.15869C25.0298 6.81755 25.1659 7.33317 25.438 7.70557C25.7101 8.07796 26.0861 8.26416 26.5659 8.26416C27.1961 8.26416 27.6562 7.98128 27.9463 7.41553V4.74609C27.6491 4.19824 27.1925 3.92432 26.5767 3.92432C26.0897 3.92432 25.7101 4.1123 25.438 4.48828C25.1659 4.86426 25.0298 5.42106 25.0298 6.15869ZM31.5664 9H30.5728V0.75H31.5664V9ZM35.063 7.54443L36.4165 3.18848H37.48L35.1436 9.89697C34.7819 10.8638 34.2072 11.3472 33.4194 11.3472L33.2314 11.3311L32.8608 11.2612V10.4556L33.1294 10.4771C33.466 10.4771 33.7274 10.409 33.9136 10.2729C34.1034 10.1369 34.2591 9.88802 34.3809 9.52637L34.6011 8.93555L32.5278 3.18848H33.6128L35.063 7.54443ZM40.8906 6.8999C40.8906 6.52393 40.9945 6.17839 41.2021 5.86328C41.4134 5.54818 41.8145 5.18115 42.4053 4.76221C42.0579 4.33968 41.8252 3.99951 41.707 3.7417C41.5889 3.48389 41.5298 3.22786 41.5298 2.97363C41.5298 2.37923 41.7052 1.91374 42.0562 1.57715C42.4071 1.24056 42.8833 1.07227 43.4849 1.07227C44.022 1.07227 44.466 1.22982 44.8169 1.54492C45.1678 1.85645 45.3433 2.25033 45.3433 2.72656C45.3433 3.04167 45.2627 3.3335 45.1016 3.60205C44.944 3.86702 44.6665 4.14632 44.269 4.43994L43.6943 4.86426L45.4346 6.94287C45.6781 6.47738 45.7998 5.95996 45.7998 5.39062H46.6968C46.6968 6.30371 46.4766 7.06104 46.0361 7.6626L47.1533 9H45.9609L45.4399 8.38232C45.175 8.61865 44.8634 8.79948 44.5054 8.9248C44.1509 9.04655 43.7892 9.10742 43.4204 9.10742C42.6577 9.10742 42.0454 8.90511 41.5835 8.50049C41.1216 8.09587 40.8906 7.56234 40.8906 6.8999ZM43.4204 8.29639C43.9468 8.29639 44.4284 8.09587 44.8652 7.69482L42.9585 5.41211L42.7812 5.54102C42.1833 5.98145 41.8843 6.43441 41.8843 6.8999C41.8843 7.32243 42.0203 7.66081 42.2925 7.91504C42.5682 8.16927 42.9442 8.29639 43.4204 8.29639ZM42.5234 2.94141C42.5234 3.28516 42.7347 3.71484 43.1572 4.23047L43.791 3.78467C44.0345 3.61279 44.201 3.44987 44.2905 3.2959C44.38 3.13835 44.4248 2.94857 44.4248 2.72656C44.4248 2.48665 44.3353 2.28792 44.1562 2.13037C43.9772 1.96924 43.7516 1.88867 43.4795 1.88867C43.1859 1.88867 42.9531 1.98893 42.7812 2.18945C42.6094 2.38639 42.5234 2.63704 42.5234 2.94141ZM56.5796 6.51855C56.4829 7.3457 56.1768 7.98486 55.6611 8.43604C55.1491 8.88363 54.467 9.10742 53.6147 9.10742C52.6909 9.10742 51.9497 8.7762 51.3911 8.11377C50.8361 7.45133 50.5586 6.5651 50.5586 5.45508V4.70312C50.5586 3.97624 50.6875 3.33708 50.9453 2.78564C51.2067 2.23421 51.5755 1.81169 52.0518 1.51807C52.528 1.22087 53.0794 1.07227 53.7061 1.07227C54.5368 1.07227 55.2028 1.30501 55.7041 1.77051C56.2054 2.23242 56.4972 2.87337 56.5796 3.69336H55.543C55.4535 3.07031 55.2583 2.61914 54.9575 2.33984C54.6603 2.06055 54.2432 1.9209 53.7061 1.9209C53.0472 1.9209 52.5298 2.16439 52.1538 2.65137C51.7814 3.13835 51.5952 3.83122 51.5952 4.72998V5.4873C51.5952 6.33594 51.7725 7.0109 52.127 7.51221C52.4814 8.01351 52.9774 8.26416 53.6147 8.26416C54.1877 8.26416 54.6263 8.13525 54.9307 7.87744C55.2386 7.61605 55.4427 7.16309 55.543 6.51855H56.5796ZM61.4243 9C61.367 8.88542 61.3205 8.68132 61.2847 8.3877C60.8228 8.86751 60.2713 9.10742 59.6304 9.10742C59.0575 9.10742 58.5866 8.94629 58.2178 8.62402C57.8525 8.29818 57.6699 7.88639 57.6699 7.38867C57.6699 6.78353 57.8991 6.31445 58.3574 5.98145C58.8193 5.64486 59.4674 5.47656 60.3018 5.47656H61.2686V5.02002C61.2686 4.67269 61.1647 4.39697 60.957 4.19287C60.7493 3.98519 60.4432 3.88135 60.0386 3.88135C59.6841 3.88135 59.3869 3.97087 59.147 4.1499C58.9071 4.32894 58.7871 4.54557 58.7871 4.7998H57.7881C57.7881 4.50977 57.8901 4.23047 58.0942 3.96191C58.3019 3.68978 58.5812 3.47493 58.9321 3.31738C59.2866 3.15983 59.6751 3.08105 60.0977 3.08105C60.7673 3.08105 61.2918 3.24935 61.6714 3.58594C62.0509 3.91895 62.2479 4.37907 62.2622 4.96631V7.64111C62.2622 8.17464 62.3302 8.59896 62.4663 8.91406V9H61.4243ZM59.7754 8.24268C60.0869 8.24268 60.3823 8.16211 60.6616 8.00098C60.9409 7.83984 61.1432 7.63037 61.2686 7.37256V6.18018H60.4897C59.2723 6.18018 58.6636 6.53646 58.6636 7.24902C58.6636 7.56055 58.7674 7.80404 58.9751 7.97949C59.1828 8.15495 59.4495 8.24268 59.7754 8.24268ZM66.6289 4.08008C66.4785 4.05501 66.3156 4.04248 66.1401 4.04248C65.4884 4.04248 65.0462 4.31999 64.8135 4.875V9H63.8198V3.18848H64.7866L64.8027 3.85986C65.1286 3.34066 65.5905 3.08105 66.1885 3.08105C66.3818 3.08105 66.5286 3.10612 66.6289 3.15625V4.08008ZM68.627 9H67.6333V3.18848H68.627V9ZM67.5527 1.64697C67.5527 1.48584 67.6011 1.34977 67.6978 1.23877C67.798 1.12777 67.9448 1.07227 68.1382 1.07227C68.3315 1.07227 68.4784 1.12777 68.5786 1.23877C68.6789 1.34977 68.729 1.48584 68.729 1.64697C68.729 1.80811 68.6789 1.94238 68.5786 2.0498C68.4784 2.15723 68.3315 2.21094 68.1382 2.21094C67.9448 2.21094 67.798 2.15723 67.6978 2.0498C67.6011 1.94238 67.5527 1.80811 67.5527 1.64697ZM71.1621 3.18848L71.1943 3.91895C71.6383 3.36035 72.2184 3.08105 72.9346 3.08105C74.1628 3.08105 74.7822 3.77393 74.793 5.15967V9H73.7993V5.1543C73.7957 4.73535 73.6991 4.42562 73.5093 4.2251C73.3231 4.02458 73.0312 3.92432 72.6338 3.92432C72.3115 3.92432 72.0286 4.01025 71.7852 4.18213C71.5417 4.354 71.3519 4.57959 71.2158 4.85889V9H70.2222V3.18848H71.1621ZM76.0552 6.0459C76.0552 5.13997 76.2646 4.42025 76.6836 3.88672C77.1025 3.34961 77.6576 3.08105 78.3486 3.08105C79.0576 3.08105 79.6108 3.33171 80.0083 3.83301L80.0566 3.18848H80.9644V8.86035C80.9644 9.6123 80.7406 10.2049 80.293 10.6382C79.849 11.0715 79.251 11.2881 78.499 11.2881C78.0801 11.2881 77.6701 11.1986 77.269 11.0195C76.868 10.8405 76.5618 10.5952 76.3506 10.2837L76.8662 9.6875C77.2923 10.2139 77.8133 10.4771 78.4292 10.4771C78.9126 10.4771 79.2886 10.341 79.5571 10.0688C79.8293 9.79671 79.9653 9.41357 79.9653 8.91943V8.41992C79.5679 8.87826 79.0254 9.10742 78.3379 9.10742C77.6576 9.10742 77.1061 8.8335 76.6836 8.28564C76.2646 7.73779 76.0552 6.99121 76.0552 6.0459ZM77.0542 6.15869C77.0542 6.81396 77.1885 7.32959 77.457 7.70557C77.7256 8.07796 78.1016 8.26416 78.585 8.26416C79.2116 8.26416 79.6717 7.97949 79.9653 7.41016V4.75684C79.661 4.20182 79.2044 3.92432 78.5957 3.92432C78.1123 3.92432 77.7345 4.1123 77.4624 4.48828C77.1903 4.86426 77.0542 5.42106 77.0542 6.15869ZM90.541 2.02832H88.0273V9H87.0015V2.02832H84.4932V1.17969H90.541V2.02832ZM93.4199 9.10742C92.6322 9.10742 91.9912 8.84961 91.4971 8.33398C91.0029 7.81478 90.7559 7.12191 90.7559 6.25537V6.07275C90.7559 5.49626 90.8651 4.98242 91.0835 4.53125C91.3055 4.0765 91.6134 3.72201 92.0073 3.46777C92.4048 3.20996 92.8345 3.08105 93.2964 3.08105C94.0519 3.08105 94.6392 3.32992 95.0581 3.82764C95.4771 4.32536 95.6865 5.03792 95.6865 5.96533V6.37891H91.7495C91.7638 6.95182 91.9303 7.41553 92.249 7.77002C92.5713 8.12093 92.9795 8.29639 93.4736 8.29639C93.8245 8.29639 94.1217 8.22477 94.3652 8.08154C94.6087 7.93831 94.8218 7.74854 95.0044 7.51221L95.6113 7.98486C95.1243 8.73324 94.3939 9.10742 93.4199 9.10742ZM93.2964 3.89746C92.8953 3.89746 92.5588 4.04427 92.2866 4.33789C92.0145 4.62793 91.8462 5.03613 91.7817 5.5625H94.6929V5.4873C94.6642 4.98242 94.5282 4.59212 94.2847 4.31641C94.0412 4.03711 93.7118 3.89746 93.2964 3.89746ZM100.429 9C100.372 8.88542 100.325 8.68132 100.29 8.3877C99.8276 8.86751 99.2762 9.10742 98.6353 9.10742C98.0623 9.10742 97.5915 8.94629 97.2227 8.62402C96.8574 8.29818 96.6748 7.88639 96.6748 7.38867C96.6748 6.78353 96.904 6.31445 97.3623 5.98145C97.8242 5.64486 98.4723 5.47656 99.3066 5.47656H100.273V5.02002C100.273 4.67269 100.17 4.39697 99.9619 4.19287C99.7542 3.98519 99.4481 3.88135 99.0435 3.88135C98.689 3.88135 98.3918 3.97087 98.1519 4.1499C97.9119 4.32894 97.792 4.54557 97.792 4.7998H96.793C96.793 4.50977 96.895 4.23047 97.0991 3.96191C97.3068 3.68978 97.5861 3.47493 97.937 3.31738C98.2915 3.15983 98.68 3.08105 99.1025 3.08105C99.7721 3.08105 100.297 3.24935 100.676 3.58594C101.056 3.91895 101.253 4.37907 101.267 4.96631V7.64111C101.267 8.17464 101.335 8.59896 101.471 8.91406V9H100.429ZM98.7803 8.24268C99.0918 8.24268 99.3872 8.16211 99.6665 8.00098C99.9458 7.83984 100.148 7.63037 100.273 7.37256V6.18018H99.4946C98.2772 6.18018 97.6685 6.53646 97.6685 7.24902C97.6685 7.56055 97.7723 7.80404 97.98 7.97949C98.1877 8.15495 98.4544 8.24268 98.7803 8.24268ZM103.759 3.18848L103.786 3.83301C104.212 3.33171 104.787 3.08105 105.51 3.08105C106.323 3.08105 106.876 3.39258 107.17 4.01562C107.363 3.73633 107.614 3.51074 107.922 3.33887C108.233 3.16699 108.6 3.08105 109.023 3.08105C110.298 3.08105 110.946 3.75602 110.967 5.10596V9H109.974V5.16504C109.974 4.74967 109.879 4.43994 109.689 4.23584C109.499 4.02816 109.181 3.92432 108.733 3.92432C108.364 3.92432 108.058 4.03532 107.814 4.25732C107.571 4.47575 107.43 4.77116 107.39 5.14355V9H106.391V5.19189C106.391 4.34684 105.978 3.92432 105.15 3.92432C104.499 3.92432 104.053 4.20182 103.813 4.75684V9H102.819V3.18848H103.759Z" fill="white"/>
</svg>
