<svg width="125" height="12" viewBox="0 0 125 12" fill="none" xmlns="http://www.w3.org/2000/svg">
<path d="M2.02637 5.36377L1.07031 6.35742V9H0.0390625V1.17969H1.07031V5.04688L4.54541 1.17969H5.7915L2.71387 4.6333L6.0332 9H4.79785L2.02637 5.36377ZM7.85938 9H6.86572V3.18848H7.85938V9ZM6.78516 1.64697C6.78516 1.48584 6.8335 1.34977 6.93018 1.23877C7.03044 1.12777 7.17725 1.07227 7.37061 1.07227C7.56396 1.07227 7.71077 1.12777 7.81104 1.23877C7.9113 1.34977 7.96143 1.48584 7.96143 1.64697C7.96143 1.80811 7.9113 1.94238 7.81104 2.0498C7.71077 2.15723 7.56396 2.21094 7.37061 2.21094C7.17725 2.21094 7.03044 2.15723 6.93018 2.0498C6.8335 1.94238 6.78516 1.80811 6.78516 1.64697ZM10.3945 3.18848L10.4268 3.91895C10.8708 3.36035 11.4508 3.08105 12.167 3.08105C13.3952 3.08105 14.0146 3.77393 14.0254 5.15967V9H13.0317V5.1543C13.0282 4.73535 12.9315 4.42562 12.7417 4.2251C12.5555 4.02458 12.2637 3.92432 11.8662 3.92432C11.5439 3.92432 11.2611 4.01025 11.0176 4.18213C10.7741 4.354 10.5843 4.57959 10.4482 4.85889V9H9.45459V3.18848H10.3945ZM15.2822 6.0459C15.2822 5.1543 15.4935 4.43815 15.916 3.89746C16.3385 3.35319 16.8918 3.08105 17.5757 3.08105C18.256 3.08105 18.7949 3.3138 19.1924 3.7793V0.75H20.186V9H19.2729L19.2246 8.37695C18.8271 8.86393 18.2739 9.10742 17.5649 9.10742C16.8918 9.10742 16.3421 8.83171 15.916 8.28027C15.4935 7.72884 15.2822 7.00911 15.2822 6.12109V6.0459ZM16.2759 6.15869C16.2759 6.81755 16.4119 7.33317 16.6841 7.70557C16.9562 8.07796 17.3322 8.26416 17.812 8.26416C18.4422 8.26416 18.9023 7.98128 19.1924 7.41553V4.74609C18.8952 4.19824 18.4386 3.92432 17.8228 3.92432C17.3358 3.92432 16.9562 4.1123 16.6841 4.48828C16.4119 4.86426 16.2759 5.42106 16.2759 6.15869ZM24.252 6.8999C24.252 6.52393 24.3558 6.17839 24.5635 5.86328C24.7747 5.54818 25.1758 5.18115 25.7666 4.76221C25.4193 4.33968 25.1865 3.99951 25.0684 3.7417C24.9502 3.48389 24.8911 3.22786 24.8911 2.97363C24.8911 2.37923 25.0666 1.91374 25.4175 1.57715C25.7684 1.24056 26.2446 1.07227 26.8462 1.07227C27.3833 1.07227 27.8273 1.22982 28.1782 1.54492C28.5291 1.85645 28.7046 2.25033 28.7046 2.72656C28.7046 3.04167 28.624 3.3335 28.4629 3.60205C28.3053 3.86702 28.0278 4.14632 27.6304 4.43994L27.0557 4.86426L28.7959 6.94287C29.0394 6.47738 29.1611 5.95996 29.1611 5.39062H30.0581C30.0581 6.30371 29.8379 7.06104 29.3975 7.6626L30.5146 9H29.3223L28.8013 8.38232C28.5363 8.61865 28.2248 8.79948 27.8667 8.9248C27.5122 9.04655 27.1506 9.10742 26.7817 9.10742C26.019 9.10742 25.4067 8.90511 24.9448 8.50049C24.4829 8.09587 24.252 7.56234 24.252 6.8999ZM26.7817 8.29639C27.3081 8.29639 27.7897 8.09587 28.2266 7.69482L26.3198 5.41211L26.1426 5.54102C25.5446 5.98145 25.2456 6.43441 25.2456 6.8999C25.2456 7.32243 25.3817 7.66081 25.6538 7.91504C25.9295 8.16927 26.3055 8.29639 26.7817 8.29639ZM25.8848 2.94141C25.8848 3.28516 26.096 3.71484 26.5186 4.23047L27.1523 3.78467C27.3958 3.61279 27.5623 3.44987 27.6519 3.2959C27.7414 3.13835 27.7861 2.94857 27.7861 2.72656C27.7861 2.48665 27.6966 2.28792 27.5176 2.13037C27.3385 1.96924 27.113 1.88867 26.8408 1.88867C26.5472 1.88867 26.3145 1.98893 26.1426 2.18945C25.9707 2.38639 25.8848 2.63704 25.8848 2.94141ZM39.9409 6.51855C39.8442 7.3457 39.5381 7.98486 39.0225 8.43604C38.5104 8.88363 37.8283 9.10742 36.9761 9.10742C36.0522 9.10742 35.311 8.7762 34.7524 8.11377C34.1974 7.45133 33.9199 6.5651 33.9199 5.45508V4.70312C33.9199 3.97624 34.0488 3.33708 34.3066 2.78564C34.568 2.23421 34.9368 1.81169 35.4131 1.51807C35.8893 1.22087 36.4408 1.07227 37.0674 1.07227C37.8981 1.07227 38.5641 1.30501 39.0654 1.77051C39.5667 2.23242 39.8586 2.87337 39.9409 3.69336H38.9043C38.8148 3.07031 38.6196 2.61914 38.3188 2.33984C38.0216 2.06055 37.6045 1.9209 37.0674 1.9209C36.4085 1.9209 35.8911 2.16439 35.5151 2.65137C35.1427 3.13835 34.9565 3.83122 34.9565 4.72998V5.4873C34.9565 6.33594 35.1338 7.0109 35.4883 7.51221C35.8428 8.01351 36.3387 8.26416 36.9761 8.26416C37.549 8.26416 37.9876 8.13525 38.292 7.87744C38.5999 7.61605 38.804 7.16309 38.9043 6.51855H39.9409ZM40.9346 6.04053C40.9346 5.47119 41.0456 4.95915 41.2676 4.50439C41.4932 4.04964 41.8047 3.69873 42.2021 3.45166C42.6032 3.20459 43.0597 3.08105 43.5718 3.08105C44.3631 3.08105 45.0023 3.35498 45.4893 3.90283C45.9798 4.45068 46.2251 5.17936 46.2251 6.08887V6.15869C46.2251 6.72445 46.1159 7.23291 45.8975 7.68408C45.6826 8.13167 45.3729 8.48079 44.9683 8.73145C44.5672 8.9821 44.1053 9.10742 43.5825 9.10742C42.7948 9.10742 42.1556 8.8335 41.665 8.28564C41.1781 7.73779 40.9346 7.0127 40.9346 6.11035V6.04053ZM41.9336 6.15869C41.9336 6.80322 42.0822 7.32064 42.3794 7.71094C42.6802 8.10124 43.0812 8.29639 43.5825 8.29639C44.0874 8.29639 44.4884 8.09945 44.7856 7.70557C45.0828 7.30811 45.2314 6.75309 45.2314 6.04053C45.2314 5.40316 45.0793 4.88753 44.7749 4.49365C44.4741 4.09619 44.0731 3.89746 43.5718 3.89746C43.0812 3.89746 42.6855 4.09261 42.3848 4.48291C42.084 4.87321 41.9336 5.4318 41.9336 6.15869ZM48.4058 3.18848L48.4326 3.83301C48.8587 3.33171 49.4334 3.08105 50.1567 3.08105C50.9696 3.08105 51.5228 3.39258 51.8164 4.01562C52.0098 3.73633 52.2604 3.51074 52.5684 3.33887C52.8799 3.16699 53.2469 3.08105 53.6694 3.08105C54.9442 3.08105 55.5923 3.75602 55.6138 5.10596V9H54.6201V5.16504C54.6201 4.74967 54.5252 4.43994 54.3354 4.23584C54.1457 4.02816 53.827 3.92432 53.3794 3.92432C53.0106 3.92432 52.7044 4.03532 52.4609 4.25732C52.2174 4.47575 52.076 4.77116 52.0366 5.14355V9H51.0376V5.19189C51.0376 4.34684 50.624 3.92432 49.7969 3.92432C49.1452 3.92432 48.6994 4.20182 48.4595 4.75684V9H47.4658V3.18848H48.4058ZM62.0269 6.15869C62.0269 7.04313 61.8245 7.7557 61.4199 8.29639C61.0153 8.83708 60.4674 9.10742 59.7764 9.10742C59.071 9.10742 58.516 8.88363 58.1113 8.43604V11.2344H57.1177V3.18848H58.0254L58.0737 3.83301C58.4784 3.33171 59.0405 3.08105 59.7603 3.08105C60.4585 3.08105 61.0099 3.34424 61.4146 3.87061C61.8228 4.39697 62.0269 5.12923 62.0269 6.06738V6.15869ZM61.0332 6.0459C61.0332 5.39062 60.8936 4.87321 60.6143 4.49365C60.335 4.1141 59.9518 3.92432 59.4648 3.92432C58.8633 3.92432 58.4121 4.19108 58.1113 4.72461V7.50146C58.4085 8.03141 58.8633 8.29639 59.4756 8.29639C59.9518 8.29639 60.3296 8.1084 60.6089 7.73242C60.8918 7.35286 61.0332 6.79069 61.0332 6.0459ZM65.7061 9.10742C64.9183 9.10742 64.2773 8.84961 63.7832 8.33398C63.2891 7.81478 63.042 7.12191 63.042 6.25537V6.07275C63.042 5.49626 63.1512 4.98242 63.3696 4.53125C63.5916 4.0765 63.8996 3.72201 64.2935 3.46777C64.6909 3.20996 65.1206 3.08105 65.5825 3.08105C66.3381 3.08105 66.9253 3.32992 67.3442 3.82764C67.7632 4.32536 67.9727 5.03792 67.9727 5.96533V6.37891H64.0356C64.05 6.95182 64.2165 7.41553 64.5352 7.77002C64.8574 8.12093 65.2656 8.29639 65.7598 8.29639C66.1107 8.29639 66.4079 8.22477 66.6514 8.08154C66.8949 7.93831 67.1079 7.74854 67.2905 7.51221L67.8975 7.98486C67.4105 8.73324 66.68 9.10742 65.7061 9.10742ZM65.5825 3.89746C65.1815 3.89746 64.8449 4.04427 64.5728 4.33789C64.3006 4.62793 64.1323 5.03613 64.0679 5.5625H66.979V5.4873C66.9504 4.98242 66.8143 4.59212 66.5708 4.31641C66.3273 4.03711 65.9979 3.89746 65.5825 3.89746ZM70.4756 1.78125V3.18848H71.5605V3.95654H70.4756V7.56055C70.4756 7.79329 70.5239 7.96875 70.6206 8.08691C70.7173 8.2015 70.882 8.25879 71.1147 8.25879C71.2293 8.25879 71.3869 8.2373 71.5874 8.19434V9C71.326 9.07161 71.0718 9.10742 70.8247 9.10742C70.3807 9.10742 70.0459 8.97314 69.8203 8.70459C69.5947 8.43604 69.4819 8.05469 69.4819 7.56055V3.95654H68.4238V3.18848H69.4819V1.78125H70.4756ZM75.1377 9.10742C74.3499 9.10742 73.709 8.84961 73.2148 8.33398C72.7207 7.81478 72.4736 7.12191 72.4736 6.25537V6.07275C72.4736 5.49626 72.5828 4.98242 72.8013 4.53125C73.0233 4.0765 73.3312 3.72201 73.7251 3.46777C74.1226 3.20996 74.5522 3.08105 75.0142 3.08105C75.7697 3.08105 76.3569 3.32992 76.7759 3.82764C77.1948 4.32536 77.4043 5.03792 77.4043 5.96533V6.37891H73.4673C73.4816 6.95182 73.6481 7.41553 73.9668 7.77002C74.2891 8.12093 74.6973 8.29639 75.1914 8.29639C75.5423 8.29639 75.8395 8.22477 76.083 8.08154C76.3265 7.93831 76.5396 7.74854 76.7222 7.51221L77.3291 7.98486C76.8421 8.73324 76.1117 9.10742 75.1377 9.10742ZM75.0142 3.89746C74.6131 3.89746 74.2765 4.04427 74.0044 4.33789C73.7323 4.62793 73.564 5.03613 73.4995 5.5625H76.4106V5.4873C76.382 4.98242 76.2459 4.59212 76.0024 4.31641C75.759 4.03711 75.4295 3.89746 75.0142 3.89746ZM79.499 3.18848L79.5312 3.91895C79.9753 3.36035 80.5553 3.08105 81.2715 3.08105C82.4997 3.08105 83.1191 3.77393 83.1299 5.15967V9H82.1362V5.1543C82.1326 4.73535 82.036 4.42562 81.8462 4.2251C81.66 4.02458 81.3682 3.92432 80.9707 3.92432C80.6484 3.92432 80.3656 4.01025 80.1221 4.18213C79.8786 4.354 79.6888 4.57959 79.5527 4.85889V9H78.5591V3.18848H79.499ZM85.9766 1.78125V3.18848H87.0615V3.95654H85.9766V7.56055C85.9766 7.79329 86.0249 7.96875 86.1216 8.08691C86.2183 8.2015 86.383 8.25879 86.6157 8.25879C86.7303 8.25879 86.8879 8.2373 87.0884 8.19434V9C86.827 9.07161 86.5728 9.10742 86.3257 9.10742C85.8817 9.10742 85.5469 8.97314 85.3213 8.70459C85.0957 8.43604 84.9829 8.05469 84.9829 7.56055V3.95654H83.9248V3.18848H84.9829V1.78125H85.9766ZM91.1113 9V1.17969H93.3188C93.9992 1.17969 94.6007 1.33008 95.1235 1.63086C95.6463 1.93164 96.0492 2.35954 96.332 2.91455C96.6185 3.46956 96.7635 4.10693 96.7671 4.82666V5.32617C96.7671 6.0638 96.6239 6.71012 96.3374 7.26514C96.0545 7.82015 95.6481 8.24626 95.1182 8.54346C94.5918 8.84066 93.9777 8.99284 93.2759 9H91.1113ZM92.1426 2.02832V8.15674H93.2275C94.0225 8.15674 94.6401 7.90967 95.0806 7.41553C95.5246 6.92139 95.7466 6.21777 95.7466 5.30469V4.84814C95.7466 3.96012 95.5371 3.27083 95.1182 2.78027C94.7028 2.28613 94.112 2.03548 93.3457 2.02832H92.1426ZM100.586 9.10742C99.7982 9.10742 99.1572 8.84961 98.6631 8.33398C98.1689 7.81478 97.9219 7.12191 97.9219 6.25537V6.07275C97.9219 5.49626 98.0311 4.98242 98.2495 4.53125C98.4715 4.0765 98.7795 3.72201 99.1733 3.46777C99.5708 3.20996 100 3.08105 100.462 3.08105C101.218 3.08105 101.805 3.32992 102.224 3.82764C102.643 4.32536 102.853 5.03792 102.853 5.96533V6.37891H98.9155C98.9299 6.95182 99.0964 7.41553 99.415 7.77002C99.7373 8.12093 100.146 8.29639 100.64 8.29639C100.991 8.29639 101.288 8.22477 101.531 8.08154C101.775 7.93831 101.988 7.74854 102.17 7.51221L102.777 7.98486C102.29 8.73324 101.56 9.10742 100.586 9.10742ZM100.462 3.89746C100.061 3.89746 99.7248 4.04427 99.4526 4.33789C99.1805 4.62793 99.0122 5.03613 98.9478 5.5625H101.859V5.4873C101.83 4.98242 101.694 4.59212 101.451 4.31641C101.207 4.03711 100.878 3.89746 100.462 3.89746ZM104.947 3.18848L104.979 3.91895C105.424 3.36035 106.004 3.08105 106.72 3.08105C107.948 3.08105 108.567 3.77393 108.578 5.15967V9H107.584V5.1543C107.581 4.73535 107.484 4.42562 107.294 4.2251C107.108 4.02458 106.816 3.92432 106.419 3.92432C106.097 3.92432 105.814 4.01025 105.57 4.18213C105.327 4.354 105.137 4.57959 105.001 4.85889V9H104.007V3.18848H104.947ZM111.425 1.78125V3.18848H112.51V3.95654H111.425V7.56055C111.425 7.79329 111.473 7.96875 111.57 8.08691C111.667 8.2015 111.831 8.25879 112.064 8.25879C112.179 8.25879 112.336 8.2373 112.537 8.19434V9C112.275 9.07161 112.021 9.10742 111.774 9.10742C111.33 9.10742 110.995 8.97314 110.77 8.70459C110.544 8.43604 110.431 8.05469 110.431 7.56055V3.95654H109.373V3.18848H110.431V1.78125H111.425ZM114.755 9H113.761V3.18848H114.755V9ZM113.681 1.64697C113.681 1.48584 113.729 1.34977 113.826 1.23877C113.926 1.12777 114.073 1.07227 114.266 1.07227C114.459 1.07227 114.606 1.12777 114.707 1.23877C114.807 1.34977 114.857 1.48584 114.857 1.64697C114.857 1.80811 114.807 1.94238 114.707 2.0498C114.606 2.15723 114.459 2.21094 114.266 2.21094C114.073 2.21094 113.926 2.15723 113.826 2.0498C113.729 1.94238 113.681 1.80811 113.681 1.64697ZM119.734 7.4585C119.734 7.18994 119.632 6.98226 119.428 6.83545C119.227 6.68506 118.875 6.55615 118.37 6.44873C117.868 6.34131 117.469 6.2124 117.172 6.06201C116.878 5.91162 116.66 5.73258 116.517 5.5249C116.377 5.31722 116.307 5.07015 116.307 4.78369C116.307 4.30745 116.508 3.90462 116.909 3.5752C117.313 3.24577 117.829 3.08105 118.456 3.08105C119.114 3.08105 119.648 3.25114 120.056 3.59131C120.468 3.93148 120.674 4.36654 120.674 4.89648H119.675C119.675 4.62435 119.558 4.38981 119.326 4.19287C119.097 3.99593 118.806 3.89746 118.456 3.89746C118.094 3.89746 117.811 3.97624 117.607 4.13379C117.403 4.29134 117.301 4.49723 117.301 4.75146C117.301 4.99137 117.396 5.1722 117.585 5.29395C117.775 5.41569 118.117 5.53206 118.611 5.64307C119.109 5.75407 119.512 5.88656 119.82 6.04053C120.128 6.1945 120.355 6.3807 120.502 6.59912C120.652 6.81396 120.728 7.07715 120.728 7.38867C120.728 7.90788 120.52 8.32503 120.104 8.64014C119.689 8.95166 119.15 9.10742 118.488 9.10742C118.022 9.10742 117.611 9.02507 117.252 8.86035C116.894 8.69564 116.613 8.46647 116.409 8.17285C116.209 7.87565 116.108 7.55518 116.108 7.21143H117.102C117.12 7.54443 117.252 7.80941 117.5 8.00635C117.75 8.19971 118.08 8.29639 118.488 8.29639C118.864 8.29639 119.165 8.22119 119.39 8.0708C119.619 7.91683 119.734 7.71273 119.734 7.4585ZM123.37 1.78125V3.18848H124.455V3.95654H123.37V7.56055C123.37 7.79329 123.418 7.96875 123.515 8.08691C123.612 8.2015 123.777 8.25879 124.009 8.25879C124.124 8.25879 124.281 8.2373 124.482 8.19434V9C124.221 9.07161 123.966 9.10742 123.719 9.10742C123.275 9.10742 122.94 8.97314 122.715 8.70459C122.489 8.43604 122.376 8.05469 122.376 7.56055V3.95654H121.318V3.18848H122.376V1.78125H123.37Z" fill="#6D6D6D"/>
</svg>
