<svg width="44" height="21" viewBox="0 0 44 21" fill="none" xmlns="http://www.w3.org/2000/svg">
<rect width="44" height="21" fill="white"/>
<path d="M11.3291 11.0146C11.3291 12.2686 11.1182 13.3643 10.6963 14.3018C10.2744 15.2334 9.67676 15.9453 8.90332 16.4375C8.12988 16.9297 7.22754 17.1758 6.19629 17.1758C5.18848 17.1758 4.29492 16.9297 3.51562 16.4375C2.73633 15.9395 2.12988 15.2334 1.69629 14.3193C1.26855 13.3994 1.04883 12.3359 1.03711 11.1289V10.2061C1.03711 8.97559 1.25098 7.88867 1.67871 6.94531C2.10645 6.00195 2.70996 5.28125 3.48926 4.7832C4.27441 4.2793 5.1709 4.02734 6.17871 4.02734C7.2041 4.02734 8.10645 4.27637 8.88574 4.77441C9.6709 5.2666 10.2744 5.98438 10.6963 6.92773C11.1182 7.86523 11.3291 8.95801 11.3291 10.2061V11.0146ZM9.65039 10.1885C9.65039 8.6709 9.3457 7.50781 8.73633 6.69922C8.12695 5.88477 7.27441 5.47754 6.17871 5.47754C5.1123 5.47754 4.27148 5.88477 3.65625 6.69922C3.04688 7.50781 2.7334 8.63281 2.71582 10.0742V11.0146C2.71582 12.4854 3.02344 13.6426 3.63867 14.4863C4.25977 15.3242 5.1123 15.7432 6.19629 15.7432C7.28613 15.7432 8.12988 15.3477 8.72754 14.5566C9.3252 13.7598 9.63281 12.6201 9.65039 11.1377V10.1885ZM15.8115 5.1875V7.49023H17.5869V8.74707H15.8115V14.6445C15.8115 15.0254 15.8906 15.3125 16.0488 15.5059C16.207 15.6934 16.4766 15.7871 16.8574 15.7871C17.0449 15.7871 17.3027 15.752 17.6309 15.6816V17C17.2031 17.1172 16.7871 17.1758 16.3828 17.1758C15.6562 17.1758 15.1084 16.9561 14.7393 16.5166C14.3701 16.0771 14.1855 15.4531 14.1855 14.6445V8.74707H12.4541V7.49023H14.1855V5.1875H15.8115ZM21.1201 8.6416C21.8408 7.75684 22.7783 7.31445 23.9326 7.31445C25.9424 7.31445 26.9561 8.44824 26.9736 10.7158V17H25.3477V10.707C25.3418 10.0215 25.1836 9.51465 24.873 9.18652C24.5684 8.8584 24.0908 8.69434 23.4404 8.69434C22.9131 8.69434 22.4502 8.83496 22.0518 9.11621C21.6533 9.39746 21.3428 9.7666 21.1201 10.2236V17H19.4941V3.5H21.1201V8.6416ZM33.3545 17.1758C32.0654 17.1758 31.0166 16.7539 30.208 15.9102C29.3994 15.0605 28.9951 13.9268 28.9951 12.5088V12.21C28.9951 11.2666 29.1738 10.4258 29.5312 9.6875C29.8945 8.94336 30.3984 8.36328 31.043 7.94727C31.6934 7.52539 32.3965 7.31445 33.1523 7.31445C34.3887 7.31445 35.3496 7.72168 36.0352 8.53613C36.7207 9.35059 37.0635 10.5166 37.0635 12.0342V12.7109H30.6211C30.6445 13.6484 30.917 14.4072 31.4385 14.9873C31.9658 15.5615 32.6338 15.8486 33.4424 15.8486C34.0166 15.8486 34.5029 15.7314 34.9014 15.4971C35.2998 15.2627 35.6484 14.9521 35.9473 14.5654L36.9404 15.3389C36.1436 16.5635 34.9482 17.1758 33.3545 17.1758ZM33.1523 8.65039C32.4961 8.65039 31.9453 8.89062 31.5 9.37109C31.0547 9.8457 30.7793 10.5137 30.6738 11.375H35.4375V11.252C35.3906 10.4258 35.168 9.78711 34.7695 9.33594C34.3711 8.87891 33.832 8.65039 33.1523 8.65039ZM43.5498 8.94922C43.3037 8.9082 43.0371 8.8877 42.75 8.8877C41.6836 8.8877 40.96 9.3418 40.5791 10.25V17H38.9531V7.49023H40.5352L40.5615 8.58887C41.0947 7.73926 41.8506 7.31445 42.8291 7.31445C43.1455 7.31445 43.3857 7.35547 43.5498 7.4375V8.94922Z" fill="#6D6D65"/>
</svg>
