<svg width="157" height="137" viewBox="0 0 157 137" fill="none" xmlns="http://www.w3.org/2000/svg">
<rect width="157" height="137" fill="white"/>
<path d="M32.434 97.866C32.766 97.866 33.062 97.81 33.322 97.698C33.586 97.586 33.808 97.43 33.988 97.23C34.172 97.03 34.312 96.79 34.408 96.51C34.504 96.226 34.552 95.912 34.552 95.568V90.36H35.95V95.568C35.95 96.076 35.868 96.546 35.704 96.978C35.544 97.41 35.312 97.784 35.008 98.1C34.704 98.412 34.334 98.658 33.898 98.838C33.466 99.014 32.978 99.102 32.434 99.102C31.89 99.102 31.4 99.014 30.964 98.838C30.532 98.658 30.164 98.412 29.86 98.1C29.556 97.784 29.322 97.41 29.158 96.978C28.998 96.546 28.918 96.076 28.918 95.568V90.36H30.322V95.562C30.322 95.906 30.37 96.22 30.466 96.504C30.562 96.784 30.7 97.026 30.88 97.23C31.06 97.43 31.28 97.586 31.54 97.698C31.804 97.81 32.102 97.866 32.434 97.866ZM38.7596 97.464C38.9396 97.696 39.1356 97.86 39.3476 97.956C39.5636 98.048 39.8016 98.094 40.0616 98.094C40.5656 98.094 40.9576 97.91 41.2376 97.542C41.5216 97.174 41.6636 96.626 41.6636 95.898C41.6636 95.522 41.6316 95.202 41.5676 94.938C41.5036 94.67 41.4116 94.452 41.2916 94.284C41.1716 94.116 41.0256 93.994 40.8536 93.918C40.6816 93.842 40.4876 93.804 40.2716 93.804C39.9436 93.804 39.6596 93.876 39.4196 94.02C39.1836 94.16 38.9636 94.362 38.7596 94.626V97.464ZM38.6936 93.768C38.9496 93.468 39.2396 93.226 39.5636 93.042C39.8916 92.858 40.2716 92.766 40.7036 92.766C41.0476 92.766 41.3596 92.836 41.6396 92.976C41.9196 93.112 42.1596 93.312 42.3596 93.576C42.5596 93.84 42.7136 94.168 42.8216 94.56C42.9336 94.948 42.9896 95.394 42.9896 95.898C42.9896 96.35 42.9276 96.772 42.8036 97.164C42.6836 97.552 42.5096 97.89 42.2816 98.178C42.0536 98.462 41.7776 98.686 41.4536 98.85C41.1296 99.01 40.7636 99.09 40.3556 99.09C39.9956 99.09 39.6896 99.032 39.4376 98.916C39.1896 98.8 38.9636 98.64 38.7596 98.436V101.034H37.4696V92.88H38.2496C38.4256 92.88 38.5376 92.962 38.5856 93.126L38.6936 93.768ZM45.557 90.12V99H44.267V90.12H45.557ZM49.7953 92.784C50.2473 92.784 50.6553 92.858 51.0193 93.006C51.3873 93.154 51.6993 93.364 51.9553 93.636C52.2153 93.908 52.4153 94.238 52.5553 94.626C52.6953 95.014 52.7653 95.45 52.7653 95.934C52.7653 96.418 52.6953 96.854 52.5553 97.242C52.4153 97.63 52.2153 97.962 51.9553 98.238C51.6993 98.51 51.3873 98.72 51.0193 98.868C50.6553 99.016 50.2473 99.09 49.7953 99.09C49.3393 99.09 48.9273 99.016 48.5593 98.868C48.1953 98.72 47.8833 98.51 47.6233 98.238C47.3633 97.962 47.1633 97.63 47.0233 97.242C46.8833 96.854 46.8133 96.418 46.8133 95.934C46.8133 95.45 46.8833 95.014 47.0233 94.626C47.1633 94.238 47.3633 93.908 47.6233 93.636C47.8833 93.364 48.1953 93.154 48.5593 93.006C48.9273 92.858 49.3393 92.784 49.7953 92.784ZM49.7953 98.082C50.3473 98.082 50.7573 97.898 51.0253 97.53C51.2973 97.158 51.4333 96.628 51.4333 95.94C51.4333 95.252 51.2973 94.722 51.0253 94.35C50.7573 93.974 50.3473 93.786 49.7953 93.786C49.2353 93.786 48.8193 93.974 48.5473 94.35C48.2753 94.722 48.1393 95.252 48.1393 95.94C48.1393 96.628 48.2753 97.158 48.5473 97.53C48.8193 97.898 49.2353 98.082 49.7953 98.082ZM57.2748 96.324C56.8148 96.34 56.4268 96.378 56.1108 96.438C55.7948 96.494 55.5388 96.568 55.3428 96.66C55.1468 96.748 55.0048 96.854 54.9168 96.978C54.8328 97.102 54.7908 97.238 54.7908 97.386C54.7908 97.53 54.8128 97.654 54.8568 97.758C54.9048 97.858 54.9688 97.942 55.0488 98.01C55.1328 98.074 55.2288 98.122 55.3368 98.154C55.4488 98.182 55.5708 98.196 55.7028 98.196C56.0388 98.196 56.3268 98.134 56.5668 98.01C56.8108 97.882 57.0468 97.698 57.2748 97.458V96.324ZM53.8548 93.732C54.5468 93.088 55.3708 92.766 56.3268 92.766C56.6788 92.766 56.9908 92.824 57.2628 92.94C57.5388 93.052 57.7688 93.212 57.9528 93.42C58.1408 93.628 58.2828 93.876 58.3788 94.164C58.4788 94.448 58.5288 94.764 58.5288 95.112V99H57.9528C57.8288 99 57.7348 98.982 57.6708 98.946C57.6068 98.906 57.5528 98.828 57.5088 98.712L57.3828 98.214C57.2268 98.354 57.0728 98.48 56.9208 98.592C56.7688 98.7 56.6108 98.792 56.4468 98.868C56.2868 98.944 56.1128 99 55.9248 99.036C55.7408 99.076 55.5368 99.096 55.3128 99.096C55.0648 99.096 54.8328 99.062 54.6168 98.994C54.4048 98.926 54.2208 98.824 54.0648 98.688C53.9088 98.548 53.7848 98.376 53.6928 98.172C53.6048 97.968 53.5608 97.728 53.5608 97.452C53.5608 97.216 53.6228 96.986 53.7468 96.762C53.8748 96.538 54.0828 96.338 54.3708 96.162C54.6628 95.982 55.0448 95.834 55.5168 95.718C55.9928 95.602 56.5788 95.536 57.2748 95.52V95.112C57.2748 94.672 57.1808 94.344 56.9928 94.128C56.8048 93.912 56.5288 93.804 56.1648 93.804C55.9168 93.804 55.7088 93.836 55.5408 93.9C55.3728 93.96 55.2268 94.026 55.1028 94.098C54.9788 94.17 54.8688 94.238 54.7728 94.302C54.6768 94.362 54.5748 94.392 54.4668 94.392C54.3788 94.392 54.3028 94.37 54.2388 94.326C54.1788 94.278 54.1288 94.22 54.0888 94.152L53.8548 93.732ZM63.9459 94.386C63.7659 94.154 63.5679 93.992 63.3519 93.9C63.1359 93.808 62.9019 93.762 62.6499 93.762C62.1459 93.762 61.7519 93.948 61.4679 94.32C61.1839 94.688 61.0419 95.234 61.0419 95.958C61.0419 96.334 61.0739 96.656 61.1379 96.924C61.2019 97.188 61.2939 97.404 61.4139 97.572C61.5339 97.74 61.6799 97.862 61.8519 97.938C62.0239 98.014 62.2179 98.052 62.4339 98.052C62.7619 98.052 63.0439 97.982 63.2799 97.842C63.5199 97.698 63.7419 97.496 63.9459 97.236V94.386ZM65.2359 90.12V99H64.4559C64.2839 99 64.1739 98.918 64.1259 98.754L64.0119 98.088C63.7559 98.388 63.4639 98.63 63.1359 98.814C62.8119 98.998 62.4339 99.09 62.0019 99.09C61.6579 99.09 61.3459 99.022 61.0659 98.886C60.7859 98.746 60.5459 98.544 60.3459 98.28C60.1459 98.016 59.9899 97.69 59.8779 97.302C59.7699 96.91 59.7159 96.462 59.7159 95.958C59.7159 95.502 59.7759 95.08 59.8959 94.692C60.0199 94.304 60.1959 93.968 60.4239 93.684C60.6519 93.396 60.9279 93.172 61.2519 93.012C61.5799 92.848 61.9459 92.766 62.3499 92.766C62.7099 92.766 63.0159 92.824 63.2679 92.94C63.5199 93.052 63.7459 93.21 63.9459 93.414V90.12H65.2359Z" fill="#56AAFF"/>
<path d="M78.1397 94.704C78.1397 95.348 78.0377 95.94 77.8337 96.48C77.6297 97.016 77.3417 97.478 76.9697 97.866C76.5977 98.254 76.1497 98.556 75.6257 98.772C75.1057 98.984 74.5297 99.09 73.8977 99.09C73.2657 99.09 72.6897 98.984 72.1697 98.772C71.6497 98.556 71.2037 98.254 70.8317 97.866C70.4597 97.478 70.1717 97.016 69.9677 96.48C69.7637 95.94 69.6617 95.348 69.6617 94.704C69.6617 94.06 69.7637 93.47 69.9677 92.934C70.1717 92.394 70.4597 91.93 70.8317 91.542C71.2037 91.15 71.6497 90.846 72.1697 90.63C72.6897 90.414 73.2657 90.306 73.8977 90.306C74.5297 90.306 75.1057 90.414 75.6257 90.63C76.1497 90.846 76.5977 91.15 76.9697 91.542C77.3417 91.93 77.6297 92.394 77.8337 92.934C78.0377 93.47 78.1397 94.06 78.1397 94.704ZM76.9457 94.704C76.9457 94.176 76.8737 93.702 76.7297 93.282C76.5857 92.862 76.3817 92.508 76.1177 92.22C75.8537 91.928 75.5337 91.704 75.1577 91.548C74.7817 91.392 74.3617 91.314 73.8977 91.314C73.4377 91.314 73.0197 91.392 72.6437 91.548C72.2677 91.704 71.9457 91.928 71.6777 92.22C71.4137 92.508 71.2097 92.862 71.0657 93.282C70.9217 93.702 70.8497 94.176 70.8497 94.704C70.8497 95.232 70.9217 95.706 71.0657 96.126C71.2097 96.542 71.4137 96.896 71.6777 97.188C71.9457 97.476 72.2677 97.698 72.6437 97.854C73.0197 98.006 73.4377 98.082 73.8977 98.082C74.3617 98.082 74.7817 98.006 75.1577 97.854C75.5337 97.698 75.8537 97.476 76.1177 97.188C76.3817 96.896 76.5857 96.542 76.7297 96.126C76.8737 95.706 76.9457 95.232 76.9457 94.704ZM79.9142 99V93.834L79.2422 93.756C79.1542 93.736 79.0842 93.706 79.0322 93.666C78.9802 93.622 78.9542 93.56 78.9542 93.48V93.042H79.9142V92.544C79.9142 92.196 79.9622 91.888 80.0582 91.62C80.1582 91.348 80.2982 91.12 80.4782 90.936C80.6582 90.748 80.8762 90.606 81.1322 90.51C81.3882 90.414 81.6762 90.366 81.9962 90.366C82.2682 90.366 82.5202 90.406 82.7522 90.486L82.7222 91.026C82.7142 91.122 82.6622 91.174 82.5662 91.182C82.4702 91.19 82.3382 91.194 82.1702 91.194C81.9862 91.194 81.8182 91.218 81.6662 91.266C81.5182 91.31 81.3902 91.386 81.2822 91.494C81.1782 91.602 81.0962 91.746 81.0362 91.926C80.9802 92.102 80.9522 92.32 80.9522 92.58V93.042H83.6942V92.706C83.6942 92.334 83.7522 91.994 83.8682 91.686C83.9842 91.374 84.1582 91.106 84.3902 90.882C84.6222 90.658 84.9102 90.484 85.2542 90.36C85.6022 90.236 86.0042 90.174 86.4602 90.174C86.6122 90.174 86.7682 90.184 86.9282 90.204C87.0882 90.224 87.2262 90.254 87.3422 90.294L87.3002 90.852C87.2962 90.892 87.2802 90.92 87.2522 90.936C87.2282 90.952 87.1942 90.962 87.1502 90.966C87.1062 90.97 87.0502 90.972 86.9822 90.972C86.9182 90.968 86.8442 90.966 86.7602 90.966C86.0482 90.966 85.5322 91.114 85.2122 91.41C84.8922 91.702 84.7322 92.144 84.7322 92.736V93.042H88.4042V99H87.3302V93.816H84.7622V99H83.6942V93.816H80.9822V99H79.9142ZM94.3885 94.002C94.3565 94.046 94.3245 94.08 94.2925 94.104C94.2605 94.128 94.2165 94.14 94.1605 94.14C94.1005 94.14 94.0345 94.116 93.9625 94.068C93.8905 94.016 93.8005 93.96 93.6925 93.9C93.5885 93.84 93.4585 93.786 93.3025 93.738C93.1505 93.686 92.9625 93.66 92.7385 93.66C92.4385 93.66 92.1745 93.714 91.9465 93.822C91.7185 93.926 91.5265 94.078 91.3705 94.278C91.2185 94.478 91.1025 94.72 91.0225 95.004C90.9465 95.288 90.9085 95.606 90.9085 95.958C90.9085 96.326 90.9505 96.654 91.0345 96.942C91.1185 97.226 91.2365 97.466 91.3885 97.662C91.5445 97.854 91.7305 98.002 91.9465 98.106C92.1665 98.206 92.4125 98.256 92.6845 98.256C92.9445 98.256 93.1585 98.226 93.3265 98.166C93.4945 98.102 93.6325 98.032 93.7405 97.956C93.8525 97.88 93.9445 97.812 94.0165 97.752C94.0925 97.688 94.1665 97.656 94.2385 97.656C94.3265 97.656 94.3945 97.69 94.4425 97.758L94.7425 98.148C94.6105 98.312 94.4605 98.452 94.2925 98.568C94.1245 98.684 93.9425 98.782 93.7465 98.862C93.5545 98.938 93.3525 98.994 93.1405 99.03C92.9285 99.066 92.7125 99.084 92.4925 99.084C92.1125 99.084 91.7585 99.014 91.4305 98.874C91.1065 98.734 90.8245 98.532 90.5845 98.268C90.3445 98 90.1565 97.672 90.0205 97.284C89.8845 96.896 89.8165 96.454 89.8165 95.958C89.8165 95.506 89.8785 95.088 90.0025 94.704C90.1305 94.32 90.3145 93.99 90.5545 93.714C90.7985 93.434 91.0965 93.216 91.4485 93.06C91.8045 92.904 92.2125 92.826 92.6725 92.826C93.1005 92.826 93.4765 92.896 93.8005 93.036C94.1285 93.172 94.4185 93.366 94.6705 93.618L94.3885 94.002ZM99.8515 95.298C99.8515 95.05 99.8155 94.824 99.7435 94.62C99.6755 94.412 99.5735 94.234 99.4375 94.086C99.3055 93.934 99.1435 93.818 98.9515 93.738C98.7595 93.654 98.5415 93.612 98.2975 93.612C97.7855 93.612 97.3795 93.762 97.0795 94.062C96.7835 94.358 96.5995 94.77 96.5275 95.298H99.8515ZM100.716 98.148C100.584 98.308 100.426 98.448 100.242 98.568C100.058 98.684 99.8595 98.78 99.6475 98.856C99.4395 98.932 99.2235 98.988 98.9995 99.024C98.7755 99.064 98.5535 99.084 98.3335 99.084C97.9135 99.084 97.5255 99.014 97.1695 98.874C96.8175 98.73 96.5115 98.522 96.2515 98.25C95.9955 97.974 95.7955 97.634 95.6515 97.23C95.5075 96.826 95.4355 96.362 95.4355 95.838C95.4355 95.414 95.4995 95.018 95.6275 94.65C95.7595 94.282 95.9475 93.964 96.1915 93.696C96.4355 93.424 96.7335 93.212 97.0855 93.06C97.4375 92.904 97.8335 92.826 98.2735 92.826C98.6375 92.826 98.9735 92.888 99.2815 93.012C99.5935 93.132 99.8615 93.308 100.086 93.54C100.314 93.768 100.492 94.052 100.62 94.392C100.748 94.728 100.812 95.112 100.812 95.544C100.812 95.712 100.794 95.824 100.758 95.88C100.722 95.936 100.654 95.964 100.554 95.964H96.4915C96.5035 96.348 96.5555 96.682 96.6475 96.966C96.7435 97.25 96.8755 97.488 97.0435 97.68C97.2115 97.868 97.4115 98.01 97.6435 98.106C97.8755 98.198 98.1355 98.244 98.4235 98.244C98.6915 98.244 98.9215 98.214 99.1135 98.154C99.3095 98.09 99.4775 98.022 99.6175 97.95C99.7575 97.878 99.8735 97.812 99.9655 97.752C100.062 97.688 100.144 97.656 100.212 97.656C100.3 97.656 100.368 97.69 100.416 97.758L100.716 98.148ZM110.324 98.022V99H105.446V90.402H106.604V98.022H110.324ZM113.486 92.826C113.93 92.826 114.33 92.9 114.686 93.048C115.042 93.196 115.346 93.406 115.598 93.678C115.85 93.95 116.042 94.28 116.174 94.668C116.31 95.052 116.378 95.482 116.378 95.958C116.378 96.438 116.31 96.87 116.174 97.254C116.042 97.638 115.85 97.966 115.598 98.238C115.346 98.51 115.042 98.72 114.686 98.868C114.33 99.012 113.93 99.084 113.486 99.084C113.038 99.084 112.634 99.012 112.274 98.868C111.918 98.72 111.614 98.51 111.362 98.238C111.11 97.966 110.916 97.638 110.78 97.254C110.648 96.87 110.582 96.438 110.582 95.958C110.582 95.482 110.648 95.052 110.78 94.668C110.916 94.28 111.11 93.95 111.362 93.678C111.614 93.406 111.918 93.196 112.274 93.048C112.634 92.9 113.038 92.826 113.486 92.826ZM113.486 98.25C114.086 98.25 114.534 98.05 114.83 97.65C115.126 97.246 115.274 96.684 115.274 95.964C115.274 95.24 115.126 94.676 114.83 94.272C114.534 93.868 114.086 93.666 113.486 93.666C113.182 93.666 112.916 93.718 112.688 93.822C112.464 93.926 112.276 94.076 112.124 94.272C111.976 94.468 111.864 94.71 111.788 94.998C111.716 95.282 111.68 95.604 111.68 95.964C111.68 96.684 111.828 97.246 112.124 97.65C112.424 98.05 112.878 98.25 113.486 98.25ZM119.816 96.03C120.032 96.03 120.222 96 120.386 95.94C120.55 95.88 120.688 95.796 120.8 95.688C120.912 95.58 120.996 95.452 121.052 95.304C121.108 95.152 121.136 94.986 121.136 94.806C121.136 94.434 121.022 94.138 120.794 93.918C120.57 93.698 120.244 93.588 119.816 93.588C119.384 93.588 119.054 93.698 118.826 93.918C118.602 94.138 118.49 94.434 118.49 94.806C118.49 94.986 118.518 95.152 118.574 95.304C118.634 95.452 118.72 95.58 118.832 95.688C118.944 95.796 119.082 95.88 119.246 95.94C119.41 96 119.6 96.03 119.816 96.03ZM121.742 99.33C121.742 99.182 121.7 99.062 121.616 98.97C121.532 98.878 121.418 98.806 121.274 98.754C121.134 98.702 120.97 98.666 120.782 98.646C120.594 98.622 120.394 98.604 120.182 98.592C119.974 98.58 119.762 98.568 119.546 98.556C119.33 98.544 119.122 98.524 118.922 98.496C118.698 98.6 118.514 98.732 118.37 98.892C118.23 99.048 118.16 99.232 118.16 99.444C118.16 99.58 118.194 99.706 118.262 99.822C118.334 99.942 118.442 100.044 118.586 100.128C118.73 100.216 118.91 100.284 119.126 100.332C119.346 100.384 119.604 100.41 119.9 100.41C120.188 100.41 120.446 100.384 120.674 100.332C120.902 100.28 121.094 100.206 121.25 100.11C121.41 100.014 121.532 99.9 121.616 99.768C121.7 99.636 121.742 99.49 121.742 99.33ZM122.828 93.162V93.558C122.828 93.69 122.744 93.774 122.576 93.81L121.886 93.9C122.022 94.164 122.09 94.456 122.09 94.776C122.09 95.072 122.032 95.342 121.916 95.586C121.804 95.826 121.648 96.032 121.448 96.204C121.248 96.376 121.008 96.508 120.728 96.6C120.448 96.692 120.144 96.738 119.816 96.738C119.532 96.738 119.264 96.704 119.012 96.636C118.884 96.716 118.786 96.802 118.718 96.894C118.65 96.982 118.616 97.072 118.616 97.164C118.616 97.308 118.674 97.418 118.79 97.494C118.91 97.566 119.066 97.618 119.258 97.65C119.45 97.682 119.668 97.702 119.912 97.71C120.16 97.718 120.412 97.732 120.668 97.752C120.928 97.768 121.18 97.798 121.424 97.842C121.672 97.886 121.892 97.958 122.084 98.058C122.276 98.158 122.43 98.296 122.546 98.472C122.666 98.648 122.726 98.876 122.726 99.156C122.726 99.416 122.66 99.668 122.528 99.912C122.4 100.156 122.214 100.372 121.97 100.56C121.726 100.752 121.426 100.904 121.07 101.016C120.718 101.132 120.32 101.19 119.876 101.19C119.432 101.19 119.044 101.146 118.712 101.058C118.38 100.97 118.104 100.852 117.884 100.704C117.664 100.556 117.498 100.384 117.386 100.188C117.278 99.996 117.224 99.794 117.224 99.582C117.224 99.282 117.318 99.028 117.506 98.82C117.694 98.612 117.952 98.446 118.28 98.322C118.1 98.242 117.956 98.136 117.848 98.004C117.744 97.868 117.692 97.686 117.692 97.458C117.692 97.37 117.708 97.28 117.74 97.188C117.772 97.092 117.82 96.998 117.884 96.906C117.952 96.81 118.034 96.72 118.13 96.636C118.226 96.552 118.338 96.478 118.466 96.414C118.166 96.246 117.932 96.024 117.764 95.748C117.596 95.468 117.512 95.144 117.512 94.776C117.512 94.48 117.568 94.212 117.68 93.972C117.796 93.728 117.956 93.522 118.16 93.354C118.364 93.182 118.606 93.05 118.886 92.958C119.17 92.866 119.48 92.82 119.816 92.82C120.08 92.82 120.326 92.85 120.554 92.91C120.782 92.966 120.99 93.05 121.178 93.162H122.828ZM126.4 92.826C126.844 92.826 127.244 92.9 127.6 93.048C127.956 93.196 128.26 93.406 128.512 93.678C128.764 93.95 128.956 94.28 129.088 94.668C129.224 95.052 129.292 95.482 129.292 95.958C129.292 96.438 129.224 96.87 129.088 97.254C128.956 97.638 128.764 97.966 128.512 98.238C128.26 98.51 127.956 98.72 127.6 98.868C127.244 99.012 126.844 99.084 126.4 99.084C125.952 99.084 125.548 99.012 125.188 98.868C124.832 98.72 124.528 98.51 124.276 98.238C124.024 97.966 123.83 97.638 123.694 97.254C123.562 96.87 123.496 96.438 123.496 95.958C123.496 95.482 123.562 95.052 123.694 94.668C123.83 94.28 124.024 93.95 124.276 93.678C124.528 93.406 124.832 93.196 125.188 93.048C125.548 92.9 125.952 92.826 126.4 92.826ZM126.4 98.25C127 98.25 127.448 98.05 127.744 97.65C128.04 97.246 128.188 96.684 128.188 95.964C128.188 95.24 128.04 94.676 127.744 94.272C127.448 93.868 127 93.666 126.4 93.666C126.096 93.666 125.83 93.718 125.602 93.822C125.378 93.926 125.19 94.076 125.038 94.272C124.89 94.468 124.778 94.71 124.702 94.998C124.63 95.282 124.594 95.604 124.594 95.964C124.594 96.684 124.742 97.246 125.038 97.65C125.338 98.05 125.792 98.25 126.4 98.25Z" fill="black" fill-opacity="0.44"/>
<path d="M95.5 43.875H62.5C61.406 43.875 60.3568 44.3096 59.5832 45.0832C58.8096 45.8568 58.375 46.906 58.375 48V68.625C58.3757 68.9022 58.4602 69.1728 58.6174 69.4011C58.7746 69.6295 58.9972 69.805 59.2559 69.9046C59.5146 70.0042 59.7974 70.0233 60.0672 69.9593C60.3369 69.8954 60.581 69.7514 60.7675 69.5463L71.9738 57.0613L79.6737 68.185C79.7802 68.3375 79.9165 68.4668 80.0743 68.5651C80.2322 68.6634 80.4083 68.7287 80.5921 68.757C80.776 68.7853 80.9636 68.776 81.1437 68.7296C81.3238 68.6833 81.4926 68.6009 81.64 68.4875L89.89 62.1762L97.2875 69.6975C97.478 69.8845 97.7188 70.012 97.9805 70.0645C98.2422 70.117 98.5136 70.0921 98.7614 69.993C99.0093 69.8938 99.2229 69.7247 99.3763 69.5062C99.5296 69.2877 99.616 69.0293 99.625 68.7625V48C99.625 46.906 99.1904 45.8568 98.4168 45.0832C97.6432 44.3096 96.594 43.875 95.5 43.875V43.875Z" fill="#56AAFF"/>
<path d="M99.2263 67.8L90.9763 59.4125C90.7407 59.1743 90.4264 59.0303 90.0922 59.0076C89.758 58.9848 89.427 59.0848 89.1613 59.2887L79.9763 66.3425C79.6979 66.558 79.5128 66.872 79.4591 67.2199C79.4054 67.5678 79.4871 67.9231 79.6875 68.2125L83.3725 73.5337C83.4989 73.7159 83.6674 73.8648 83.8637 73.9677C84.0601 74.0707 84.2784 74.1246 84.5 74.125H95.5C96.5941 74.125 97.6433 73.6904 98.4169 72.9168C99.1904 72.1432 99.625 71.094 99.625 70V68.7625C99.6235 68.4018 99.4803 68.0561 99.2263 67.8Z" fill="#0478ED"/>
<path d="M85.6276 71.9662L73.2526 54.0912C73.1346 53.9195 72.9791 53.7768 72.7979 53.674C72.6167 53.5712 72.4145 53.5108 72.2066 53.4976C71.9987 53.4843 71.7905 53.5185 71.5977 53.5975C71.4049 53.6766 71.2326 53.7984 71.0938 53.9537L58.7188 67.7037C58.4946 67.958 58.3722 68.286 58.375 68.625V70C58.375 71.094 58.8096 72.1432 59.5832 72.9168C60.3568 73.6904 61.406 74.125 62.5001 74.125H84.5001C84.7509 74.1246 84.9969 74.0556 85.2113 73.9254C85.4257 73.7952 85.6004 73.6089 85.7166 73.3866C85.8327 73.1642 85.8858 72.9143 85.8701 72.664C85.8544 72.4136 85.7705 72.1724 85.6276 71.9662Z" fill="#0478ED"/>
<path d="M84.5 56.25C86.0188 56.25 87.25 55.0188 87.25 53.5C87.25 51.9812 86.0188 50.75 84.5 50.75C82.9812 50.75 81.75 51.9812 81.75 53.5C81.75 55.0188 82.9812 56.25 84.5 56.25Z" fill="white"/>
</svg>
