<?xml version="1.0" encoding="UTF-8" standalone="no"?><svg xmlns="http://www.w3.org/2000/svg" xmlns:xlink="http://www.w3.org/1999/xlink" width="36px" height="48px" viewBox="0 0 36 48" version="1.1"><title>Yelp-color</title><g id="Icons" stroke="none" stroke-width="1" fill="none" fill-rule="evenodd"><g id="Color-" transform="translate(-306.000000, -760.000000)" fill="#D32200"><path d="M306.917 783.109c-.767 1.249-1.09 5.183-.826 7.795.094.862.248 1.58.47 2.01.306.592.823.946 1.412.966.377.02.611-.045 7.703-2.363 0 0 3.152-1.02 3.165-1.027.786-.201 1.314-.936 1.367-1.875.05-.96-.44-1.81-1.244-2.117 0 0-2.22-.92-2.226-.92-7.62-3.194-7.962-3.32-8.347-3.324-.588-.023-1.113.277-1.474.855zm17.048 23.795c.124-.362.138-.612.159-8.183 0 0 .018-3.343.02-3.38.05-.817-.47-1.562-1.328-1.9-.88-.343-1.827-.13-2.359.545 0 0-1.554 1.875-1.56 1.875-5.342 6.37-5.56 6.664-5.692 7.042a1.534 1.534 0 0 0-.083.695c.032.336.18.672.43.98 1.237 1.498 7.175 3.718 9.07 3.39.66-.124 1.138-.5 1.343-1.064zm12.042-2.634c1.79-.725 5.696-5.772 5.97-7.715.095-.675-.112-1.258-.571-1.629-.3-.23-.532-.32-7.618-2.682 0 0-3.108-1.044-3.149-1.063-.75-.296-1.611-.024-2.188.703-.598.743-.692 1.72-.213 2.462l1.252 2.068c4.209 6.944 4.53 7.434 4.833 7.674.468.375 1.063.437 1.684.182zm-3.66-17.872c8.054-1.982 8.365-2.088 8.684-2.3.486-.331.731-.89.69-1.572 0-.022.003-.043 0-.069-.207-2.007-3.674-7.236-5.38-8.083-.605-.296-1.212-.275-1.71.066-.311.207-.542.517-4.854 6.508 0 0-1.95 2.699-1.972 2.724-.515.633-.52 1.545-.02 2.325.52.807 1.399 1.2 2.203.974 0 0-.033.057-.042.069.397-.155 1.109-.33 2.401-.642zm-8.088-6.757c-.138-3.242-1.097-17.684-1.21-18.354-.166-.605-.63-1.038-1.302-1.21-2.054-.52-9.911 1.72-11.369 3.247-.466.495-.641 1.107-.5 1.645.227.48 9.966 16.044 9.966 16.044 1.441 2.372 2.615 2.004 2.998 1.883.382-.122 1.55-.49 1.417-3.255z" id="Yelp"/></g></g><metadata><rdf:RDF xmlns:rdf="http://www.w3.org/1999/02/22-rdf-syntax-ns#" xmlns:rdfs="http://www.w3.org/2000/01/rdf-schema#" xmlns:dc="http://purl.org/dc/elements/1.1/"><rdf:Description about="https://iconscout.com/legal#licenses" dc:title="yelp,color" dc:description="yelp,color" dc:publisher="Iconscout" dc:date="2017-09-14" dc:format="image/svg+xml" dc:language="en"><dc:creator><rdf:Bag><rdf:li>Alexis Doreau</rdf:li></rdf:Bag></dc:creator></rdf:Description></rdf:RDF></metadata></svg>